<?xml version="1.0" encoding="UTF-8"?>
<svg xmlns="http://www.w3.org/2000/svg" width="1200" height="492.7" xmlns:xlink="http://www.w3.org/1999/xlink" viewBox="0 0 1200 492.7">
  <defs>
    <style>
      .cls-1 {
        fill: #cdcaca;
      }

      .cls-2 {
        fill: #bfbdbd;
      }

      .cls-3 {
        fill: #e0dfdf;
      }

      .cls-4 {
        fill: #dfdddd;
      }

      .cls-5 {
        fill: #ddd;
      }

      .cls-6 {
        fill: #e9e9e9;
      }

      .cls-7 {
        fill: #f0f0f0;
      }

      .cls-8 {
        fill: #f4f4f4;
      }

      .cls-9 {
        fill: #fff;
      }

      .cls-10 {
        fill: #c4c2c2;
      }

      .cls-11 {
        fill: #c5c5c5;
      }

      .cls-12 {
        fill: #cccaca;
      }

      .cls-13 {
        fill: #cbcbcb;
      }

      .cls-14 {
        fill: #ff54ff;
      }

      .cls-15 {
        fill: #b4b3b3;
      }

      .cls-16 {
        fill: #3074e6;
      }

      .cls-17 {
        fill: #d3d0d0;
      }

      .cls-18 {
        fill: #d1d1d1;
      }

      .cls-19 {
        fill: #dbdbdb;
      }

      .cls-20 {
        fill: #f1eeee;
      }

      .cls-21 {
        fill: #cac8c8;
      }

      .cls-22 {
        fill: #cacaca;
      }

      .cls-23 {
        fill: #f2efef;
      }

      .cls-24 {
        fill: #f0eded;
      }

      .cls-25 {
        fill: #d8d8d8;
      }

      .cls-26 {
        fill: #f6f6f6;
      }

      .cls-27 {
        fill: #bfbfbf;
      }

      .cls-28 {
        fill: #dcdada;
      }

      .cls-29 {
        fill: #e2e0e0;
      }

      .cls-30 {
        fill: #aaa9a9;
      }

      .cls-31 {
        fill: #d1cece;
      }

      .cls-32 {
        fill: #e4e2e2;
      }

      .cls-33 {
        fill: #d7d4d4;
      }

      .cls-34 {
        fill: #d7d6d6;
      }

      .cls-35 {
        fill: silver;
      }

      .cls-36 {
        fill: #e8e5e5;
      }

      .cls-37 {
        fill: #e2e2e2;
      }

      .cls-38 {
        fill: #f5f5f5;
      }

      .cls-39 {
        fill: #dfdede;
      }

      .cls-40 {
        fill: #efecec;
      }

      .cls-41 {
        fill: #b1b0b0;
      }

      .cls-42 {
        fill: #eae7e7;
      }

      .cls-43 {
        fill: #dbcf38;
      }

      .cls-44 {
        fill: #d0cdcd;
      }

      .cls-45 {
        isolation: isolate;
      }

      .cls-46 {
        fill: #d2d1d1;
      }

      .cls-47 {
        fill: #b2b1b1;
      }

      .cls-48 {
        fill: #dedcdc;
      }

      .cls-49 {
        fill: #d6d6d6;
      }

      .cls-50 {
        fill: #dbdada;
      }

      .cls-51 {
        fill: #e9e6e6;
      }

      .cls-52 {
        fill: #b4b4b4;
      }

      .cls-53 {
        fill: #dcdbdb;
      }

      .cls-54 {
        fill: #c9c9c9;
      }

      .cls-55 {
        fill: #c8c6c6;
      }

      .cls-56 {
        fill: #afaeae;
      }

      .cls-57 {
        fill: #b7b6b6;
      }

      .cls-58 {
        fill: #e0e0e0;
      }

      .cls-59 {
        fill: #e7e5e5;
      }

      .cls-60 {
        fill: #dedddd;
      }

      .cls-61 {
        fill: #c7c7c7;
      }

      .cls-62 {
        fill: #dedede;
      }

      .cls-63 {
        fill: #ece9e9;
      }

      .cls-64 {
        fill: #c3c3c3;
      }

      .cls-65 {
        fill: #cfcfcf;
      }

      .cls-66 {
        fill: #d7d7d7;
      }

      .cls-67 {
        fill: #bdbdbd;
      }

      .cls-68 {
        fill: #c3c1c1;
      }

      .cls-69 {
        fill: #e1e1e1;
      }

      .cls-70 {
        fill: #aeadad;
      }

      .cls-71 {
        fill: #e6e6e6;
      }

      .cls-72 {
        fill: #d6d3d3;
      }

      .cls-73 {
        fill: #bab9b9;
      }

      .cls-74 {
        fill: #e7e7e7;
      }

      .cls-75 {
        fill: #f3f0f0;
      }

      .cls-76 {
        fill: #b0afaf;
      }

      .cls-77 {
        fill: #dad7d7;
      }

      .cls-78 {
        fill: #b8b7b7;
      }

      .cls-79 {
        fill: #c0bebe;
      }

      .cls-80 {
        fill: #d8d5d5;
      }

      .cls-81 {
        fill: #5ec3ea;
      }

      .cls-82 {
        fill: #d4d4d4;
      }

      .cls-83 {
        fill: #acabab;
      }

      .cls-84 {
        fill: #dbd9d9;
      }

      .cls-85 {
        fill: #dadada;
      }

      .cls-86 {
        fill: #d9d6d6;
      }

      .cls-87 {
        fill: #e0dede;
      }

      .cls-88 {
        fill: #eaeaea;
      }

      .cls-89 {
        fill: #e1dfdf;
      }

      .cls-90 {
        fill: #c5e9c1;
      }

      .cls-91 {
        fill: #b3b2b2;
      }

      .cls-92 {
        fill: #c8c8c8;
      }

      .cls-93 {
        fill: #c1bfbf;
      }

      .cls-94 {
        fill: #e4e4e4;
      }

      .cls-95 {
        fill: #c7c5c5;
      }

      .cls-96 {
        fill: #bcbbbb;
      }

      .cls-97 {
        fill: #e5e3e3;
      }

      .cls-98 {
        fill: #bbbaba;
      }

      .cls-99 {
        fill: #dad9d9;
      }

      .cls-100 {
        fill: #e5e5e5;
      }

      .cls-101 {
        fill: #d4d1d1;
      }

      .cls-102 {
        fill: #d5d4d4;
      }

      .cls-103 {
        fill: #e3e1e1;
      }

      .cls-104 {
        fill: #c9c7c7;
      }

      .cls-105 {
        fill: #bdbcbc;
      }

      .cls-106 {
        fill: #f5f2f2;
      }

      .cls-107 {
        fill: #a4a3a3;
      }

      .cls-108 {
        fill: #b9b8b8;
      }

      .cls-109 {
        fill: #d3d3d3;
      }

      .cls-110 {
        fill: #ebebeb;
      }

      .cls-111 {
        fill: #bebebe;
      }

      .cls-112 {
        fill: #d5d5d5;
      }

      .cls-113 {
        fill: #c6c4c4;
      }

      .cls-114, .cls-115 {
        fill: none;
      }

      .cls-116 {
        fill: #5271ff;
      }

      .cls-117 {
        fill: #dcdcdc;
      }

      .cls-118 {
        fill: #e3e2e2;
      }

      .cls-119 {
        fill: #f4f1f1;
      }

      .cls-120 {
        fill: #c1c1c1;
      }

      .cls-121 {
        fill: #e8e8e8;
      }

      .cls-122 {
        fill: #d8d7d7;
      }

      .cls-123 {
        fill: #dad8d8;
      }

      .cls-124 {
        fill: #ccc;
      }

      .cls-125 {
        fill: #d2cfcf;
      }

      .cls-126 {
        fill: #e6e4e4;
      }

      .cls-127 {
        fill: #d1d0d0;
      }

      .cls-128 {
        fill: #333334;
      }

      .cls-129 {
        fill: #efefef;
      }

      .cls-130 {
        fill: #b5b4b4;
      }

      .cls-131 {
        fill: #e1e0e0;
      }

      .cls-132 {
        fill: #34d89c;
      }

      .cls-133 {
        fill: #d3d2d2;
      }

      .cls-134 {
        fill: #cfcccc;
      }

      .cls-135 {
        fill: #dddbdb;
      }

      .cls-136 {
        fill: #d6d5d5;
      }

      .cls-137 {
        fill: #c2c2c2;
      }

      .cls-138 {
        fill: #f1f1f1;
      }

      .cls-139 {
        fill: #c2c0c0;
      }

      .cls-140 {
        fill: #e2e1e1;
      }

      .cls-141 {
        fill: #adacac;
      }

      .cls-142 {
        fill: #eeebeb;
      }

      .cls-143 {
        fill: #f6f3f3;
      }

      .cls-144 {
        fill: #b6b5b5;
      }

      .cls-145 {
        fill: #cecece;
      }

      .cls-146 {
        fill: url(#linear-gradient);
      }

      .cls-147 {
        fill: #f3f3f3;
      }

      .cls-148 {
        fill: #d9d9d9;
      }

      .cls-115 {
        stroke: #212121;
        stroke-miterlimit: 10;
        stroke-width: .07px;
      }

      .cls-149 {
        fill: #d9d8d8;
      }

      .cls-150 {
        fill: #cdcdcd;
      }

      .cls-151 {
        fill: #d4d3d3;
      }

      .cls-152 {
        fill: #d2d2d2;
      }

      .cls-153 {
        fill: #c6c6c6;
      }

      .cls-154 {
        fill: #eee;
      }

      .cls-155 {
        fill: #cecbcb;
      }

      .cls-156 {
        fill: #d0d0d0;
      }

      .cls-157 {
        fill: #ececec;
      }

      .cls-158 {
        fill: #bebcbc;
      }

      .cls-159 {
        fill: #f2f2f2;
      }

      .cls-160 {
        fill: #c4c4c4;
      }

      .cls-161 {
        fill: #abaaaa;
      }

      .cls-162 {
        fill: #c5c3c3;
      }

      .cls-163 {
        fill: #ffa476;
      }

      .cls-164 {
        fill: #cbc9c9;
      }

      .cls-165 {
        fill: #d5d2d2;
      }

      .cls-166 {
        fill: #edeaea;
      }

      .cls-167 {
        fill: #ebe8e8;
      }

      .cls-168 {
        fill: #060606;
      }

      .cls-169 {
        fill: #e3e3e3;
      }

      .cls-170 {
        fill: #dddcdc;
      }

      .cls-171 {
        fill: #ededed;
      }

      .cls-172 {
        fill: #dfdfdf;
      }
    </style>
    <linearGradient id="linear-gradient" x1="858.91" y1="322.01" x2="858.91" y2="110.37" gradientUnits="userSpaceOnUse">
      <stop offset="0" stop-color="#eaeaeb"/>
      <stop offset=".51" stop-color="#ababaf"/>
      <stop offset=".66" stop-color="#c6c6c8"/>
      <stop offset="1" stop-color="#fff"/>
    </linearGradient>
  </defs>
  <g id="_Слой_1" data-name="Слой 1">
    <g id="_Слой_1-2" data-name="Слой 1">
      <g>
        <g class="cls-45">
          <path class="cls-107" d="m154.52,203.97h21.6c5.65,0,10,1.57,13.04,4.72,3.04,3.09,4.56,7.09,4.56,12s-1.41,8.4-4.24,11.12c-1.97,1.87-4.43,3.09-7.36,3.68l16.72,21.84h-17.2l-13.28-20.48v20.48h-13.84v-53.36Zm13.84,10.72v13.2h2.64c2.99,0,5.23-.72,6.72-2.16,1.17-1.17,1.76-2.67,1.76-4.48s-.61-3.36-1.84-4.48c-1.39-1.39-3.6-2.08-6.64-2.08h-2.64Z"/>
          <path class="cls-107" d="m213.4,257.33v-25.6l-19.28-27.76h16.56l10.08,14.56,9.68-14.56h16.8l-19.92,27.76v25.6h-13.92Z"/>
          <path class="cls-107" d="m295.72,203.97l-25.12,41.6h22.4v11.76h-45.68l25.28-41.6h-20.96v-11.76h44.08Z"/>
          <path class="cls-107" d="m316.2,203.97v19.92h20v-19.92h13.92v53.36h-13.92v-21.6h-20v21.6h-13.84v-53.36h13.84Z"/>
          <path class="cls-107" d="m397.16,257.33l-3.28-8.96h-19.36l-3.6,8.96h-14.64l20.48-53.36h15.12l20.08,53.36h-14.8Zm-18.8-19.52h11.84l-6-17.28-5.84,17.28Z"/>
          <path class="cls-107" d="m431.96,203.97v22l16.96-22h17.12l-21.2,25.28,23.12,28.08h-17.92l-18.08-23.12v23.12h-13.84v-53.36h13.84Z"/>
          <path class="cls-107" d="m527.64,230.69c0,7.89-2.8,14.53-8.4,19.92-5.55,5.28-12.56,7.92-21.04,7.92s-15.49-2.64-21.04-7.92c-5.6-5.39-8.4-12.03-8.4-19.92,0-3.68.71-7.28,2.12-10.8,1.41-3.52,3.51-6.59,6.28-9.2,5.55-5.28,12.56-7.92,21.04-7.92s15.49,2.64,21.04,7.92c2.77,2.61,4.87,5.68,6.28,9.2,1.41,3.52,2.12,7.12,2.12,10.8Zm-29.44-14.48c-4.37,0-7.97,1.41-10.8,4.24-2.83,2.77-4.24,6.27-4.24,10.48,0,3.89,1.41,7.2,4.24,9.92,2.93,2.83,6.53,4.24,10.8,4.24s7.95-1.39,10.72-4.16c2.88-2.88,4.32-6.29,4.32-10.24s-1.44-7.47-4.32-10.24c-2.99-2.83-6.56-4.24-10.72-4.24Z"/>
          <path class="cls-107" d="m528.84,203.97h15.12l12.8,32.48,12.96-32.48h15.04l-22.72,53.36h-10.8l-22.4-53.36Z"/>
        </g>
        <g class="cls-45">
          <path class="cls-116" d="m176.41,291.15l-3.31,5.38c-1.7-1.54-3.49-2.3-5.38-2.3-1.41,0-2.45.37-3.12,1.1-.54.54-.82,1.22-.82,2.02,0,.74.24,1.33.72,1.78.16.13.32.25.48.36.16.11.38.23.67.36.29.13.53.23.72.31.19.08.53.21,1.01.38s.86.31,1.15.41l2.4.91c2.02.77,3.47,1.58,4.37,2.45,1.57,1.47,2.35,3.46,2.35,5.95,0,3.33-.94,5.97-2.83,7.92-2.08,2.18-5.1,3.26-9.07,3.26-2.43,0-4.54-.45-6.34-1.34-1.6-.8-3.17-1.97-4.7-3.5l3.84-5.28c1.09,1.09,2.08,1.9,2.98,2.45,1.25.77,2.59,1.15,4.03,1.15s2.5-.37,3.36-1.1c.77-.64,1.15-1.5,1.15-2.59,0-.9-.37-1.66-1.1-2.3-.58-.48-1.82-1.07-3.74-1.78l-2.64-.91c-2.08-.74-3.57-1.58-4.46-2.54-1.28-1.34-1.92-3.2-1.92-5.57,0-2.91.93-5.31,2.78-7.2,1.92-1.95,4.56-2.93,7.92-2.93s6.66,1.06,9.5,3.17Z"/>
          <path class="cls-116" d="m206.26,310.02c0,3.17-1.07,5.82-3.22,7.97-2.3,2.3-5.42,3.46-9.36,3.46s-7.06-1.15-9.36-3.46c-2.14-2.14-3.22-4.8-3.22-7.97s1.07-5.82,3.22-7.97c2.3-2.3,5.42-3.46,9.36-3.46s7.06,1.15,9.36,3.46c2.14,2.14,3.22,4.8,3.22,7.97Zm-12.58-5.57c-1.57,0-2.86.51-3.89,1.54-1.06,1.06-1.58,2.4-1.58,4.03s.53,2.98,1.58,4.03c1.02,1.02,2.34,1.54,3.94,1.54s2.82-.51,3.84-1.54c1.06-1.06,1.58-2.4,1.58-4.03s-.53-2.98-1.58-4.03c-1.02-1.02-2.32-1.54-3.89-1.54Z"/>
          <path class="cls-116" d="m223.54,304.88h-5.47v15.84h-6.91v-15.84h-2.5v-5.57h2.5v-4.22c0-3.26.8-5.74,2.4-7.44,1.54-1.63,3.54-2.45,6-2.45,1.34,0,2.66.24,3.94.72v6.05c-.86-.54-1.74-.82-2.64-.82s-1.57.29-2.02.86c-.51.67-.77,1.9-.77,3.7v3.6h5.47v5.57Z"/>
          <path class="cls-116" d="m239.09,304.88h-4.27v15.84h-6.91v-15.84h-2.4v-5.57h2.4v-6.91h6.91v6.91h4.27v5.57Z"/>
          <path class="cls-116" d="m260.84,308.53l-5.38,12.19h-4.32l-10.66-21.41h7.58l5.52,11.38,5.42-11.66h3.65l5.42,11.66,5.52-11.38h7.58l-10.66,21.41h-4.32l-5.38-12.19Z"/>
          <path class="cls-116" d="m299.67,301.71v-2.4h6.91v21.41h-6.91v-2.59c-1.44,2.21-3.55,3.31-6.34,3.31-3.3,0-5.97-1.09-8.02-3.26-2.08-2.21-3.12-4.88-3.12-8.02,0-3.55,1.1-6.43,3.31-8.64,1.95-1.95,4.43-2.93,7.44-2.93s5.18,1.04,6.72,3.12Zm-4.99,2.83c-1.5,0-2.77.51-3.79,1.54-1.06,1.06-1.58,2.35-1.58,3.89s.48,2.82,1.44,3.84c1.06,1.12,2.42,1.68,4.08,1.68,1.41,0,2.61-.5,3.6-1.49,1.12-1.06,1.68-2.4,1.68-4.03s-.53-2.94-1.58-3.94c-1.02-.99-2.3-1.49-3.84-1.49Z"/>
          <path class="cls-116" d="m311.96,320.72v-21.41h6.91v3.36c.67-1.31,1.57-2.3,2.69-2.98.96-.61,2.19-.91,3.7-.91.8,0,1.55.11,2.26.34l-.38,6.48c-.96-.51-2-.77-3.12-.77-1.41,0-2.56.48-3.46,1.44-1.12,1.18-1.68,3.1-1.68,5.76v8.69h-6.91Z"/>
          <path class="cls-116" d="m351.6,310.5v.72h-15.98c0,1.47.43,2.69,1.3,3.65.83.9,2.02,1.34,3.55,1.34,1.15,0,2.08-.21,2.78-.62.54-.29,1.04-.88,1.49-1.78l6.53.67c-.74,2.34-2.11,4.13-4.13,5.38-1.76,1.06-4.02,1.58-6.77,1.58-3.65,0-6.5-1.02-8.54-3.07-2.14-2.14-3.22-4.9-3.22-8.26s1.09-6.21,3.26-8.45c2.05-2.05,4.78-3.07,8.21-3.07,3.62,0,6.45,1.07,8.5,3.22,2.02,2.14,3.02,5.04,3.02,8.69Zm-15.74-3.41h9.36c-.26-1.02-.72-1.86-1.39-2.5-.86-.8-1.95-1.2-3.26-1.2-1.41,0-2.58.46-3.5,1.39-.64.67-1.04,1.44-1.2,2.3Z"/>
          <path class="cls-116" d="m390.44,285.73v34.99h-6.91v-2.59c-1.5,2.21-3.76,3.31-6.77,3.31s-5.46-.98-7.34-2.93c-2.24-2.24-3.36-5.1-3.36-8.59s1.12-6.3,3.36-8.45c2.02-1.92,4.5-2.88,7.44-2.88s5.14,1.04,6.67,3.12v-15.98h6.91Zm-11.9,18.82c-1.47,0-2.7.48-3.7,1.44-1.12,1.06-1.68,2.42-1.68,4.08,0,1.57.56,2.88,1.68,3.94,1.02.99,2.22,1.49,3.6,1.49,1.54,0,2.85-.53,3.94-1.58,1.06-.99,1.58-2.27,1.58-3.84s-.51-2.85-1.54-3.94c-1.02-1.06-2.32-1.58-3.89-1.58Z"/>
          <path class="cls-116" d="m417.94,310.5v.72h-15.98c0,1.47.43,2.69,1.3,3.65.83.9,2.02,1.34,3.55,1.34,1.15,0,2.08-.21,2.78-.62.54-.29,1.04-.88,1.49-1.78l6.53.67c-.74,2.34-2.11,4.13-4.13,5.38-1.76,1.06-4.02,1.58-6.77,1.58-3.65,0-6.5-1.02-8.54-3.07-2.14-2.14-3.22-4.9-3.22-8.26s1.09-6.21,3.26-8.45c2.05-2.05,4.78-3.07,8.21-3.07,3.62,0,6.45,1.07,8.5,3.22,2.02,2.14,3.02,5.04,3.02,8.69Zm-15.74-3.41h9.36c-.26-1.02-.72-1.86-1.39-2.5-.86-.8-1.95-1.2-3.26-1.2-1.41,0-2.58.46-3.5,1.39-.64.67-1.04,1.44-1.2,2.3Z"/>
          <path class="cls-116" d="m419.67,299.31h7.58l5.42,11.47,5.42-11.47h7.58l-10.85,21.41h-4.32l-10.85-21.41Z"/>
          <path class="cls-116" d="m469.68,310.5v.72h-15.98c0,1.47.43,2.69,1.3,3.65.83.9,2.02,1.34,3.55,1.34,1.15,0,2.08-.21,2.78-.62.54-.29,1.04-.88,1.49-1.78l6.53.67c-.74,2.34-2.11,4.13-4.13,5.38-1.76,1.06-4.02,1.58-6.77,1.58-3.65,0-6.5-1.02-8.54-3.07-2.14-2.14-3.22-4.9-3.22-8.26s1.09-6.21,3.26-8.45c2.05-2.05,4.78-3.07,8.21-3.07,3.62,0,6.45,1.07,8.5,3.22,2.02,2.14,3.02,5.04,3.02,8.69Zm-15.74-3.41h9.36c-.26-1.02-.72-1.86-1.39-2.5-.86-.8-1.95-1.2-3.26-1.2-1.41,0-2.58.46-3.5,1.39-.64.67-1.04,1.44-1.2,2.3Z"/>
          <path class="cls-116" d="m474.19,285.73h6.91v34.99h-6.91v-34.99Z"/>
          <path class="cls-116" d="m510.77,310.02c0,3.17-1.07,5.82-3.22,7.97-2.3,2.3-5.42,3.46-9.36,3.46s-7.06-1.15-9.36-3.46c-2.14-2.14-3.22-4.8-3.22-7.97s1.07-5.82,3.22-7.97c2.3-2.3,5.42-3.46,9.36-3.46s7.06,1.15,9.36,3.46c2.14,2.14,3.22,4.8,3.22,7.97Zm-12.58-5.57c-1.57,0-2.86.51-3.89,1.54-1.06,1.06-1.58,2.4-1.58,4.03s.53,2.98,1.58,4.03c1.02,1.02,2.34,1.54,3.94,1.54s2.82-.51,3.84-1.54c1.06-1.06,1.58-2.4,1.58-4.03s-.53-2.98-1.58-4.03c-1.02-1.02-2.32-1.54-3.89-1.54Z"/>
          <path class="cls-116" d="m522,318.27v13.44h-6.91v-32.4h6.91v2.54c1.66-2.18,3.89-3.26,6.67-3.26,3.04,0,5.57,1.01,7.58,3.02,2.14,2.14,3.22,4.93,3.22,8.35s-1.14,6.32-3.41,8.59c-1.92,1.92-4.34,2.88-7.25,2.88s-5.31-1.06-6.82-3.17Zm4.99-13.73c-1.5,0-2.78.53-3.84,1.58-1.09,1.09-1.63,2.4-1.63,3.94,0,1.44.51,2.71,1.54,3.79,1.09,1.09,2.4,1.63,3.94,1.63,1.41,0,2.64-.5,3.7-1.49,1.12-1.06,1.68-2.42,1.68-4.08,0-1.57-.54-2.86-1.63-3.89-1.06-.99-2.3-1.49-3.74-1.49Z"/>
          <path class="cls-116" d="m565.73,310.5v.72h-15.98c0,1.47.43,2.69,1.3,3.65.83.9,2.02,1.34,3.55,1.34,1.15,0,2.08-.21,2.78-.62.54-.29,1.04-.88,1.49-1.78l6.53.67c-.74,2.34-2.11,4.13-4.13,5.38-1.76,1.06-4.02,1.58-6.77,1.58-3.65,0-6.5-1.02-8.54-3.07-2.14-2.14-3.22-4.9-3.22-8.26s1.09-6.21,3.26-8.45c2.05-2.05,4.78-3.07,8.21-3.07,3.62,0,6.45,1.07,8.5,3.22,2.02,2.14,3.02,5.04,3.02,8.69Zm-15.74-3.41h9.36c-.26-1.02-.72-1.86-1.39-2.5-.86-.8-1.95-1.2-3.26-1.2-1.41,0-2.58.46-3.5,1.39-.64.67-1.04,1.44-1.2,2.3Z"/>
          <path class="cls-116" d="m570.05,320.72v-21.41h6.91v3.36c.67-1.31,1.57-2.3,2.69-2.98.96-.61,2.19-.91,3.7-.91.8,0,1.55.11,2.26.34l-.38,6.48c-.96-.51-2-.77-3.12-.77-1.41,0-2.56.48-3.46,1.44-1.12,1.18-1.68,3.1-1.68,5.76v8.69h-6.91Z"/>
        </g>
        <g class="cls-45">
          <path class="cls-116" d="m162.12,141.23v12.19h12.77v-12.19h7.39v32.02h-7.39v-13.58h-12.77v13.58h-7.39v-32.02h7.39Z"/>
          <path class="cls-116" d="m189.55,145.58c-.78-.78-1.18-1.74-1.18-2.86s.39-2.07,1.18-2.86c.78-.78,1.74-1.18,2.86-1.18s2.07.39,2.86,1.18c.78.78,1.18,1.74,1.18,2.86s-.39,2.07-1.18,2.86c-.78.78-1.74,1.18-2.86,1.18s-2.07-.39-2.86-1.18Zm-.6,6.26h6.91v21.41h-6.91v-21.41Z"/>
          <path class="cls-116" d="m200.18,179.39l5.28-13.54,6.29.34-7.25,13.39-4.32-.19Z"/>
          <path class="cls-116" d="m230.71,141.23h7.39v32.02h-7.39v-32.02Z"/>
          <path class="cls-116" d="m272.03,154.24v-2.4h6.91v21.41h-6.91v-2.59c-1.44,2.21-3.55,3.31-6.34,3.31-3.3,0-5.97-1.09-8.02-3.26-2.08-2.21-3.12-4.88-3.12-8.02,0-3.55,1.1-6.43,3.31-8.64,1.95-1.95,4.43-2.93,7.44-2.93s5.18,1.04,6.72,3.12Zm-4.99,2.83c-1.5,0-2.77.51-3.79,1.54-1.06,1.06-1.58,2.35-1.58,3.89s.48,2.82,1.44,3.84c1.06,1.12,2.42,1.68,4.08,1.68,1.41,0,2.61-.5,3.6-1.49,1.12-1.06,1.68-2.4,1.68-4.03s-.53-2.94-1.58-3.94c-1.02-.99-2.3-1.49-3.84-1.49Z"/>
          <path class="cls-116" d="m284.32,173.25v-21.41h6.91v2.5c1.34-2.02,3.34-3.02,6-3.02,1.63,0,2.98.32,4.03.96,1.12.64,1.98,1.63,2.59,2.98.67-1.12,1.58-2.03,2.74-2.74,1.31-.8,2.83-1.2,4.56-1.2,2.59,0,4.59.67,6,2.02,1.47,1.41,2.21,3.54,2.21,6.38v13.54h-6.91v-10.85c0-2.02-.3-3.41-.91-4.18-.61-.77-1.44-1.15-2.5-1.15-1.15,0-2.05.43-2.69,1.3-.7.9-1.06,2.3-1.06,4.22v10.66h-6.91v-11.14c0-2.05-.37-3.44-1.1-4.18-.58-.58-1.34-.86-2.3-.86s-1.79.29-2.4.86c-.9.86-1.34,2.32-1.34,4.37v10.94h-6.91Z"/>
        </g>
      </g>
    </g>
    <g id="_Слой_3" data-name="Слой 3">
      <rect class="cls-114" width="1200" height="492.7"/>
    </g>
  </g>
  <g id="_Слой_2" data-name="Слой 2">
    <g>
      <polygon class="cls-26" points="825.13 321.9 905.26 321.9 912.18 359.79 817.86 359.79 825.13 321.9"/>
      <g>
        <polygon class="cls-30" points="906.64 329.48 905.26 321.9 825.13 321.9 823.66 329.55 906.64 329.48"/>
        <polygon class="cls-161" points="906.66 329.55 905.27 321.95 825.11 321.96 823.64 329.62 906.66 329.55"/>
        <polygon class="cls-83" points="906.67 329.62 905.28 322.01 825.1 322.02 823.63 329.7 906.67 329.62"/>
        <polygon class="cls-141" points="906.68 329.68 905.29 322.06 825.09 322.08 823.62 329.78 906.68 329.68"/>
        <polygon class="cls-70" points="906.69 329.75 905.3 322.12 825.08 322.14 823.6 329.85 906.69 329.75"/>
        <polygon class="cls-56" points="906.71 329.82 905.31 322.18 825.07 322.19 823.59 329.93 906.71 329.82"/>
        <polygon class="cls-76" points="906.72 329.89 905.32 322.23 825.06 322.25 823.57 330.01 906.72 329.89"/>
        <polygon class="cls-41" points="906.73 329.96 905.33 322.29 825.05 322.31 823.56 330.08 906.73 329.96"/>
        <polygon class="cls-47" points="906.74 330.03 905.34 322.35 825.03 322.37 823.55 330.16 906.74 330.03"/>
        <polygon class="cls-91" points="906.76 330.1 905.35 322.4 825.02 322.43 823.53 330.24 906.76 330.1"/>
        <polygon class="cls-15" points="906.77 330.17 905.36 322.46 825.01 322.49 823.52 330.32 906.77 330.17"/>
        <polygon class="cls-130" points="906.78 330.24 905.37 322.51 825 322.55 823.5 330.39 906.78 330.24"/>
        <polygon class="cls-144" points="906.79 330.31 905.38 322.57 824.99 322.61 823.49 330.47 906.79 330.31"/>
        <polygon class="cls-57" points="906.81 330.38 905.39 322.63 824.98 322.67 823.48 330.55 906.81 330.38"/>
        <polygon class="cls-78" points="906.82 330.44 905.4 322.68 824.97 322.73 823.46 330.62 906.82 330.44"/>
        <polygon class="cls-108" points="906.83 330.51 905.41 322.74 824.95 322.79 823.45 330.7 906.83 330.51"/>
        <polygon class="cls-73" points="906.85 330.58 905.42 322.8 824.94 322.85 823.43 330.78 906.85 330.58"/>
        <polygon class="cls-98" points="906.86 330.65 905.43 322.85 824.93 322.91 823.42 330.85 906.86 330.65"/>
        <polygon class="cls-96" points="906.87 330.72 905.44 322.91 824.92 322.97 823.41 330.93 906.87 330.72"/>
        <polygon class="cls-105" points="906.88 330.79 905.45 322.96 824.91 323.03 823.39 331.01 906.88 330.79"/>
        <polygon class="cls-67" points="906.9 330.86 905.47 323.02 824.9 323.09 823.38 331.08 906.9 330.86"/>
        <polygon class="cls-111" points="906.91 330.93 905.48 323.08 824.88 323.15 823.36 331.16 906.91 330.93"/>
        <polygon class="cls-27" points="906.92 331 905.49 323.13 824.87 323.21 823.35 331.24 906.92 331"/>
        <polygon class="cls-35" points="906.93 331.07 905.5 323.19 824.86 323.27 823.34 331.31 906.93 331.07"/>
        <polygon class="cls-120" points="906.95 331.14 905.51 323.25 824.85 323.33 823.32 331.39 906.95 331.14"/>
        <polygon class="cls-137" points="906.96 331.2 905.52 323.3 824.84 323.39 823.31 331.47 906.96 331.2"/>
        <polygon class="cls-64" points="906.97 331.27 905.53 323.36 824.83 323.45 823.29 331.54 906.97 331.27"/>
        <polygon class="cls-160" points="906.98 331.34 905.54 323.41 824.82 323.51 823.28 331.62 906.98 331.34"/>
        <polygon class="cls-11" points="907 331.41 905.55 323.47 824.8 323.57 823.27 331.7 907 331.41"/>
        <polygon class="cls-153" points="907.01 331.48 905.56 323.53 824.79 323.63 823.25 331.77 907.01 331.48"/>
        <polygon class="cls-61" points="907.02 331.55 905.57 323.58 824.78 323.69 823.24 331.85 907.02 331.55"/>
        <polygon class="cls-92" points="907.03 331.62 905.58 323.64 824.77 323.75 823.22 331.93 907.03 331.62"/>
        <polygon class="cls-54" points="907.05 331.69 905.59 323.7 824.76 323.81 823.21 332 907.05 331.69"/>
        <polygon class="cls-22" points="907.06 331.76 905.6 323.75 824.75 323.87 823.2 332.08 907.06 331.76"/>
        <polygon class="cls-13" points="907.07 331.83 905.61 323.81 824.74 323.93 823.18 332.16 907.07 331.83"/>
        <polygon class="cls-124" points="907.08 331.9 905.62 323.86 824.72 323.99 823.17 332.23 907.08 331.9"/>
        <polygon class="cls-150" points="907.1 331.97 905.63 323.92 824.71 324.05 823.15 332.31 907.1 331.97"/>
        <polygon class="cls-145" points="907.11 332.03 905.64 323.98 824.7 324.11 823.14 332.39 907.11 332.03"/>
        <polygon class="cls-65" points="907.12 332.1 905.65 324.03 824.69 324.17 823.13 332.46 907.12 332.1"/>
        <polygon class="cls-156" points="907.14 332.17 905.66 324.09 824.68 324.23 823.11 332.54 907.14 332.17"/>
        <polygon class="cls-127" points="907.15 332.24 905.67 324.14 824.67 324.29 823.1 332.62 907.15 332.24"/>
        <polygon class="cls-46" points="907.16 332.31 905.68 324.2 824.66 324.35 823.08 332.69 907.16 332.31"/>
        <polygon class="cls-133" points="907.17 332.38 905.69 324.26 824.64 324.41 823.07 332.77 907.17 332.38"/>
        <polygon class="cls-151" points="907.19 332.45 905.7 324.31 824.63 324.47 823.06 332.85 907.19 332.45"/>
        <polygon class="cls-102" points="907.2 332.52 905.71 324.37 824.62 324.53 823.04 332.92 907.2 332.52"/>
        <polygon class="cls-136" points="907.21 332.59 905.72 324.43 824.61 324.59 823.03 333 907.21 332.59"/>
        <polygon class="cls-34" points="907.22 332.66 905.73 324.48 824.6 324.64 823.01 333.08 907.22 332.66"/>
        <polygon class="cls-122" points="907.24 332.73 905.74 324.54 824.59 324.7 823 333.15 907.24 332.73"/>
        <polygon class="cls-149" points="907.25 332.79 905.75 324.59 824.58 324.76 822.99 333.23 907.25 332.79"/>
        <polygon class="cls-99" points="907.26 332.86 905.76 324.65 824.56 324.82 822.97 333.31 907.26 332.86"/>
        <polygon class="cls-50" points="907.27 332.93 905.77 324.71 824.55 324.88 822.96 333.38 907.27 332.93"/>
        <polygon class="cls-53" points="907.29 333 905.78 324.76 824.54 324.94 822.94 333.46 907.29 333"/>
        <polygon class="cls-170" points="907.3 333.07 905.79 324.82 824.53 325 822.93 333.54 907.3 333.07"/>
        <polygon class="cls-60" points="907.31 333.14 905.8 324.88 824.52 325.06 822.92 333.61 907.31 333.14"/>
        <polygon class="cls-39" points="907.32 333.21 905.81 324.93 824.51 325.12 822.9 333.69 907.32 333.21"/>
        <polygon class="cls-3" points="907.34 333.28 905.82 324.99 824.5 325.18 822.89 333.77 907.34 333.28"/>
        <polygon class="cls-131" points="907.35 333.35 905.83 325.04 824.48 325.24 822.87 333.84 907.35 333.35"/>
        <polygon class="cls-140" points="907.36 333.42 905.84 325.1 824.47 325.3 822.86 333.92 907.36 333.42"/>
        <polygon class="cls-118" points="907.37 333.49 905.85 325.16 824.46 325.36 822.85 334 907.37 333.49"/>
        <polygon class="cls-169" points="907.39 333.56 905.87 325.21 824.45 325.42 822.83 334.07 907.39 333.56"/>
        <polygon class="cls-94" points="907.4 333.62 905.88 325.27 824.44 325.48 822.82 334.15 907.4 333.62"/>
        <polygon class="cls-100" points="907.41 333.69 905.89 325.33 824.43 325.54 822.8 334.23 907.41 333.69"/>
        <polygon class="cls-71" points="907.43 333.76 905.9 325.38 824.42 325.6 822.79 334.3 907.43 333.76"/>
        <polygon class="cls-74" points="907.44 333.83 905.91 325.44 824.4 325.66 822.78 334.38 907.44 333.83"/>
        <polygon class="cls-121" points="907.45 333.9 905.92 325.49 824.39 325.72 822.76 334.46 907.45 333.9"/>
        <polygon class="cls-6" points="907.46 333.97 905.93 325.55 824.38 325.78 822.75 334.53 907.46 333.97"/>
        <polygon class="cls-88" points="907.48 334.04 905.94 325.61 824.37 325.84 822.73 334.61 907.48 334.04"/>
        <polygon class="cls-110" points="907.49 334.11 905.95 325.66 824.36 325.9 822.72 334.69 907.49 334.11"/>
        <polygon class="cls-157" points="907.5 334.18 905.96 325.72 824.35 325.96 822.71 334.76 907.5 334.18"/>
        <polygon class="cls-171" points="907.51 334.25 905.97 325.78 824.34 326.02 822.69 334.84 907.51 334.25"/>
        <polygon class="cls-154" points="907.53 334.32 905.98 325.83 824.32 326.08 822.68 334.92 907.53 334.32"/>
        <polygon class="cls-129" points="907.54 334.38 905.99 325.89 824.31 326.14 822.66 334.99 907.54 334.38"/>
        <polygon class="cls-7" points="907.55 334.45 906 325.94 824.3 326.2 822.65 335.07 907.55 334.45"/>
        <polygon class="cls-138" points="907.56 334.52 906.01 326 824.29 326.26 822.64 335.15 907.56 334.52"/>
        <polygon class="cls-159" points="907.58 334.59 906.02 326.06 824.28 326.32 822.62 335.22 907.58 334.59"/>
        <polygon class="cls-147" points="907.59 334.66 906.03 326.11 824.27 326.38 822.61 335.3 907.59 334.66"/>
        <polygon class="cls-8" points="907.6 334.73 906.04 326.17 824.25 326.44 822.59 335.38 907.6 334.73"/>
        <polygon class="cls-38" points="907.61 334.8 906.05 326.22 824.24 326.5 822.58 335.45 907.61 334.8"/>
        <polygon class="cls-26" points="907.63 334.87 906.06 326.28 824.23 326.56 822.57 335.53 907.63 334.87"/>
      </g>
      <g>
        <polygon class="cls-160" points="818.91 354.31 817.86 359.79 912.18 359.79 910.4 353.97 818.91 354.31"/>
        <polygon class="cls-11" points="818.92 354.24 817.87 359.76 912.17 359.75 910.41 353.91 818.92 354.24"/>
        <polygon class="cls-153" points="818.94 354.17 817.87 359.72 912.16 359.7 910.41 353.85 818.94 354.17"/>
        <polygon class="cls-61" points="818.95 354.11 817.88 359.68 912.15 359.66 910.41 353.8 818.95 354.11"/>
        <polygon class="cls-92" points="818.96 354.04 817.89 359.64 912.14 359.61 910.42 353.74 818.96 354.04"/>
        <polygon class="cls-54" points="818.98 353.97 817.9 359.6 912.13 359.57 910.42 353.68 818.98 353.97"/>
        <polygon class="cls-22" points="818.99 353.9 817.9 359.56 912.13 359.52 910.42 353.63 818.99 353.9"/>
        <polygon class="cls-13" points="819 353.83 817.91 359.52 912.12 359.47 910.43 353.57 819 353.83"/>
        <polygon class="cls-124" points="819.02 353.76 817.92 359.48 912.11 359.43 910.43 353.51 819.02 353.76"/>
        <polygon class="cls-150" points="819.03 353.7 817.93 359.44 912.1 359.38 910.43 353.46 819.03 353.7"/>
        <polygon class="cls-145" points="819.04 353.63 817.93 359.4 912.09 359.34 910.44 353.4 819.04 353.63"/>
        <polygon class="cls-65" points="819.05 353.56 817.94 359.36 912.08 359.29 910.44 353.34 819.05 353.56"/>
        <polygon class="cls-156" points="819.07 353.49 817.95 359.32 912.08 359.24 910.44 353.29 819.07 353.49"/>
        <polygon class="cls-18" points="819.08 353.42 817.96 359.28 912.07 359.2 910.45 353.23 819.08 353.42"/>
        <polygon class="cls-152" points="819.09 353.35 817.96 359.25 912.06 359.15 910.45 353.17 819.09 353.35"/>
        <polygon class="cls-109" points="819.11 353.29 817.97 359.21 912.05 359.11 910.46 353.12 819.11 353.29"/>
        <polygon class="cls-82" points="819.12 353.22 817.98 359.17 912.04 359.06 910.46 353.06 819.12 353.22"/>
        <polygon class="cls-112" points="819.13 353.15 817.99 359.13 912.03 359.01 910.46 353.01 819.13 353.15"/>
        <polygon class="cls-49" points="819.15 353.08 817.99 359.09 912.03 358.97 910.47 352.95 819.15 353.08"/>
        <polygon class="cls-66" points="819.16 353.01 818 359.05 912.02 358.92 910.47 352.89 819.16 353.01"/>
        <polygon class="cls-25" points="819.17 352.89 818.01 358.96 912.01 358.83 910.47 352.79 819.17 352.89"/>
        <polygon class="cls-148" points="819.19 352.82 818.02 358.92 912 358.78 910.48 352.73 819.19 352.82"/>
        <polygon class="cls-85" points="819.2 352.75 818.02 358.88 911.99 358.73 910.48 352.67 819.2 352.75"/>
        <polygon class="cls-19" points="819.21 352.68 818.03 358.83 911.98 358.68 910.48 352.61 819.21 352.68"/>
        <polygon class="cls-117" points="819.22 352.61 818.04 358.79 911.98 358.63 910.49 352.55 819.22 352.61"/>
        <polygon class="cls-5" points="819.24 352.54 818.05 358.75 911.97 358.58 910.49 352.49 819.24 352.54"/>
        <polygon class="cls-5" points="819.25 352.47 818.05 358.71 911.96 358.54 910.5 352.43 819.25 352.47"/>
        <polygon class="cls-62" points="819.26 352.4 818.06 358.67 911.95 358.49 910.5 352.37 819.26 352.4"/>
        <polygon class="cls-172" points="819.28 352.33 818.07 358.63 911.94 358.44 910.5 352.31 819.28 352.33"/>
        <polygon class="cls-58" points="819.29 352.26 818.08 358.58 911.93 358.39 910.51 352.25 819.29 352.26"/>
        <polygon class="cls-69" points="819.3 352.19 818.08 358.55 911.92 358.35 910.51 352.2 819.3 352.19"/>
        <polygon class="cls-37" points="819.32 352.13 818.09 358.51 911.92 358.3 910.51 352.15 819.32 352.13"/>
        <polygon class="cls-169" points="819.33 352.06 818.1 358.48 911.91 358.26 910.52 352.09 819.33 352.06"/>
        <polygon class="cls-94" points="819.34 352 818.11 358.44 911.9 358.22 910.52 352.04 819.34 352"/>
        <polygon class="cls-100" points="819.36 351.93 818.11 358.4 911.89 358.18 910.52 351.99 819.36 351.93"/>
        <polygon class="cls-71" points="819.37 351.87 818.12 358.37 911.88 358.13 910.53 351.93 819.37 351.87"/>
        <polygon class="cls-74" points="819.38 351.8 818.13 358.33 911.87 358.09 910.53 351.88 819.38 351.8"/>
        <polygon class="cls-121" points="819.39 351.78 818.14 358.34 911.87 358.1 910.54 351.88 819.39 351.78"/>
        <polygon class="cls-6" points="819.41 351.72 818.14 358.3 911.86 358.05 910.54 351.82 819.41 351.72"/>
        <polygon class="cls-88" points="819.42 351.65 818.15 358.26 911.85 358.01 910.54 351.76 819.42 351.65"/>
        <polygon class="cls-110" points="819.43 351.58 818.16 358.23 911.84 357.96 910.55 351.71 819.43 351.58"/>
        <polygon class="cls-157" points="819.45 351.51 818.17 358.19 911.83 357.91 910.55 351.65 819.45 351.51"/>
        <polygon class="cls-171" points="819.46 351.44 818.17 358.15 911.82 357.87 910.55 351.59 819.46 351.44"/>
        <polygon class="cls-154" points="819.47 351.37 818.18 358.11 911.82 357.82 910.56 351.54 819.47 351.37"/>
        <polygon class="cls-129" points="819.49 351.31 818.19 358.07 911.81 357.78 910.56 351.48 819.49 351.31"/>
        <polygon class="cls-7" points="819.5 351.24 818.2 358.03 911.8 357.73 910.56 351.42 819.5 351.24"/>
        <polygon class="cls-138" points="819.51 351.17 818.2 357.99 911.79 357.68 910.57 351.37 819.51 351.17"/>
        <polygon class="cls-159" points="819.53 351.1 818.21 357.95 911.78 357.64 910.57 351.31 819.53 351.1"/>
        <polygon class="cls-147" points="819.54 351.03 818.22 357.91 911.77 357.59 910.58 351.25 819.54 351.03"/>
        <polygon class="cls-8" points="819.55 350.96 818.23 357.87 911.77 357.55 910.58 351.2 819.55 350.96"/>
        <polygon class="cls-38" points="819.57 350.9 818.23 357.83 911.76 357.5 910.58 351.14 819.57 350.9"/>
        <polygon class="cls-26" points="819.58 350.83 818.24 357.79 911.75 357.45 910.59 351.09 819.58 350.83"/>
      </g>
      <path class="cls-143" d="m923.63,361.84l-11.45-2.04h-94.32l-11.45,2.04c-.35.06-.61.37-.61.73v2.29c0,.3.24.54.54.54h117.35c.3,0,.54-.24.54-.54v-2.29c0-.36-.26-.66-.61-.73Z"/>
      <g>
        <polygon class="cls-158" points="920.7 361.32 912.18 359.79 817.86 359.79 809.34 361.32 920.7 361.32"/>
        <path class="cls-2" d="m817.66,359.83s-2.61.47-2.61.48l-5.78,1.07s.74,0,.75,0c0,0,110.72,0,110.73,0l-5.78-1.07s-2.6-.48-2.61-.48h-.83s-93.87,0-93.89,0Z"/>
        <path class="cls-79" d="m817.46,359.87s-2.57.47-2.57.48l-5.67,1.09s.73.02.74.02c0,0,110.84,0,110.86-.02l-5.67-1.09s-2.56-.48-2.57-.48h-.83s-94.25,0-94.29,0Z"/>
        <path class="cls-93" d="m817.26,359.9s-2.53.47-2.53.49l-5.57,1.11s.73.03.74.03c0,0,110.96,0,110.99-.03l-5.57-1.11s-2.52-.48-2.53-.49h-.84s-94.63,0-94.69,0Z"/>
        <path class="cls-139" d="m817.06,359.94s-2.5.46-2.5.49l-5.47,1.14s.72.04.74.04c0,0,111.08,0,111.12-.04l-5.47-1.14s-2.47-.49-2.5-.49h-.84s-95.01-.01-95.09,0Z"/>
        <path class="cls-68" d="m816.85,359.97s-2.46.46-2.46.49l-5.36,1.16s.71.05.73.05c0,0,111.2,0,111.25-.05l-5.36-1.16s-2.43-.49-2.46-.49l-.84-.02s-95.39,0-95.48.02Z"/>
        <path class="cls-10" d="m816.65,360.01s-2.43.46-2.43.5l-5.26,1.18s.7.06.73.06c0,0,111.32,0,111.37-.06l-5.26-1.18s-2.39-.49-2.43-.5l-.85-.02s-95.77,0-95.88.02Z"/>
        <path class="cls-162" d="m816.45,360.05s-2.39.46-2.39.5l-5.16,1.2s.69.07.73.07c0,0,111.43,0,111.5-.07l-5.16-1.2s-2.35-.5-2.39-.5l-.85-.02s-96.15,0-96.28.02Z"/>
        <path class="cls-113" d="m816.25,360.08s-2.36.46-2.36.51l-5.05,1.22s.68.08.72.08c0,0,111.55,0,111.63-.08l-5.05-1.22c0-.05-2.31-.5-2.36-.51l-.86-.03s-96.53,0-96.68.03Z"/>
        <path class="cls-95" d="m816.05,360.12c-.06,0-2.32.46-2.32.51l-4.95,1.25s.67.09.72.09c0,0,111.67,0,111.76-.09l-4.95-1.25c0-.06-2.26-.5-2.32-.51l-.86-.03s-96.91,0-97.07.03Z"/>
        <path class="cls-55" d="m815.85,360.15c-.06.01-2.28.45-2.28.52l-4.85,1.27c0,.05.66.09.71.09,0,0,111.79,0,111.88-.09l-4.85-1.27c0-.06-2.22-.51-2.28-.52l-.86-.03s-97.29,0-97.47.03Z"/>
        <path class="cls-104" d="m815.65,360.19c-.07.01-2.25.45-2.25.52l-4.74,1.29c0,.06.65.1.71.1,0,0,111.91,0,112.01-.1l-4.74-1.29c0-.07-2.18-.51-2.25-.52l-.87-.04s-97.67,0-97.87.04Z"/>
        <path class="cls-21" d="m815.45,360.23c-.07.01-2.21.45-2.21.53l-4.64,1.31c0,.06.64.11.71.11,0,0,112.03,0,112.14-.11l-4.64-1.31c0-.08-2.14-.51-2.21-.53l-.87-.04s-98.05,0-98.27.04Z"/>
        <path class="cls-164" d="m815.25,360.26c-.08.01-2.18.45-2.18.53l-4.54,1.33c0,.07.64.12.7.12,0,0,112.15,0,112.27-.12l-4.54-1.33c0-.08-2.1-.52-2.18-.53l-.88-.04s-98.43,0-98.66.04Z"/>
        <path class="cls-12" d="m815.05,360.3c-.09.02-2.14.45-2.14.53l-4.43,1.35c0,.07.63.13.7.13,0,0,112.26,0,112.4-.13l-4.43-1.35c0-.09-2.06-.52-2.14-.53l-.88-.05s-98.8,0-99.06.05Z"/>
        <path class="cls-1" d="m814.85,360.33c-.09.02-2.11.44-2.11.54l-4.33,1.38c0,.08.62.14.7.14,0,0,112.38,0,112.52-.14l-4.33-1.38c0-.09-2.01-.52-2.11-.54l-.88-.05s-99.18,0-99.46.05Z"/>
        <path class="cls-155" d="m814.64,360.37c-.1.02-2.07.44-2.07.54l-4.23,1.4c0,.08.61.15.69.15,0,0,112.5,0,112.65-.15l-4.23-1.4c0-.1-1.97-.53-2.07-.54l-.89-.05s-99.56,0-99.86.05Z"/>
        <path class="cls-134" d="m814.44,360.4c-.11.02-2.04.44-2.04.55l-4.13,1.42c0,.09.6.16.69.16,0,0,112.62,0,112.78-.16l-4.13-1.42c0-.11-1.93-.53-2.04-.55l-.89-.06s-99.94,0-100.26.06Z"/>
        <path class="cls-44" d="m814.24,360.44c-.11.02-2,.44-2,.55l-4.02,1.44c0,.09.59.17.69.17,0,0,112.74,0,112.91-.17l-4.02-1.44c0-.11-1.89-.53-2-.55l-.9-.06s-100.32,0-100.65.06Z"/>
        <path class="cls-31" d="m814.04,360.48c-.12.02-1.96.44-1.96.56l-3.92,1.46c0,.1.58.18.68.18,0,0,112.86,0,113.04-.18l-3.92-1.46c0-.12-1.85-.54-1.96-.56l-.9-.06s-100.7,0-101.05.06Z"/>
        <path class="cls-125" d="m813.84,360.51c-.12.02-1.93.44-1.93.56l-3.82,1.48c0,.1.57.19.68.19,0,0,112.97,0,113.16-.19l-3.82-1.48c0-.13-1.8-.54-1.93-.56l-.9-.07s-101.08,0-101.45.07Z"/>
        <path class="cls-17" d="m813.64,360.55c-.13.02-1.89.43-1.89.57l-3.71,1.51c0,.11.56.2.67.2,0,0,113.09,0,113.29-.2l-3.71-1.51c0-.13-1.76-.54-1.89-.57l-.91-.07s-101.46,0-101.85.07Z"/>
        <path class="cls-101" d="m813.44,360.58c-.14.02-1.86.43-1.86.57l-3.61,1.53c0,.12.56.21.67.21,0,0,113.21,0,113.42-.21l-3.61-1.53c0-.14-1.72-.55-1.86-.57l-.91-.07s-101.84,0-102.24.07Z"/>
        <path class="cls-165" d="m813.24,360.62c-.14.03-1.82.43-1.82.57l-3.51,1.55c0,.12.55.22.67.22,0,0,113.33,0,113.55-.22l-3.51-1.55c0-.14-1.68-.55-1.82-.57l-.92-.08s-102.22,0-102.64.08Z"/>
        <path class="cls-72" d="m813.04,360.66c-.15.03-1.79.43-1.79.58l-3.4,1.57c0,.13.54.23.66.23,0,0,113.45,0,113.67-.23l-3.4-1.57c0-.15-1.64-.55-1.79-.58l-.92-.08s-102.6,0-103.04.08Z"/>
        <path class="cls-33" d="m812.84,360.69c-.15.03-1.75.43-1.75.58l-3.3,1.59c0,.13.53.24.66.24,0,0,113.57,0,113.8-.24l-3.3-1.59c0-.16-1.6-.56-1.75-.58l-.92-.08s-102.98,0-103.44.08Z"/>
        <path class="cls-80" d="m812.64,360.73c-.16.03-1.71.43-1.71.59l-3.2,1.61c0,.14.52.25.66.25,0,0,113.68,0,113.93-.25l-3.2-1.61c0-.16-1.55-.56-1.71-.59l-.93-.09s-103.36,0-103.84.09Z"/>
        <path class="cls-86" d="m812.44,360.76c-.17.03-1.68.42-1.68.59l-3.09,1.64c0,.14.51.26.65.26,0,0,113.8,0,114.06-.26l-3.09-1.64c0-.17-1.51-.56-1.68-.59l-.93-.09s-103.74,0-104.23.09Z"/>
        <path class="cls-77" d="m812.23,360.8c-.17.03-1.64.42-1.64.6l-2.99,1.66c0,.15.5.27.65.27,0,0,113.92,0,114.19-.27l-2.99-1.66c0-.18-1.47-.57-1.64-.6l-.94-.09s-104.11,0-104.63.09Z"/>
        <path class="cls-123" d="m812.03,360.84c-.18.03-1.61.42-1.61.6l-2.89,1.68c0,.15.49.27.64.27,0,0,114.04,0,114.31-.27l-2.89-1.68c0-.18-1.43-.57-1.61-.6l-.94-.1s-104.49,0-105.03.1Z"/>
        <path class="cls-84" d="m811.83,360.87c-.19.03-1.57.42-1.57.61l-2.78,1.7c0,.16.48.28.64.28,0,0,114.16,0,114.44-.28l-2.78-1.7c0-.19-1.39-.57-1.57-.61l-.94-.1s-104.87,0-105.43.1Z"/>
        <path class="cls-28" d="m811.63,360.91c-.19.03-1.54.42-1.54.61l-2.68,1.72c0,.16.47.29.64.29,0,0,114.28,0,114.57-.29l-2.68-1.72c0-.19-1.34-.58-1.54-.61l-.95-.1s-105.25,0-105.82.1Z"/>
        <path class="cls-135" d="m811.43,360.94c-.2.04-1.5.41-1.5.62l-2.58,1.74c0,.17.47.3.63.3,0,0,114.39,0,114.7-.3l-2.58-1.74c0-.2-1.3-.58-1.5-.62l-.95-.11s-105.63,0-106.22.11Z"/>
        <path class="cls-48" d="m811.23,360.98c-.2.04-1.46.41-1.46.62l-2.48,1.77c0,.17.46.31.63.31,0,0,114.51,0,114.83-.31l-2.48-1.77c0-.21-1.26-.58-1.46-.62l-.96-.11s-106.01,0-106.62.11Z"/>
        <path class="cls-4" d="m811.03,361.01c-.21.04-1.43.41-1.43.62l-2.37,1.79c0,.18.45.32.63.32,0,0,114.63,0,114.95-.32l-2.37-1.79c0-.21-1.22-.59-1.43-.62l-.96-.11s-106.39,0-107.02.11Z"/>
        <path class="cls-87" d="m810.83,361.05c-.22.04-1.39.41-1.39.63l-2.27,1.81c0,.18.44.33.62.33,0,0,114.75,0,115.08-.33l-2.27-1.81c0-.22-1.18-.59-1.39-.63l-.96-.12s-106.77,0-107.42.12Z"/>
        <path class="cls-89" d="m810.63,361.09c-.22.04-1.36.41-1.36.63l-2.17,1.83c0,.19.43.34.62.34,0,0,114.87,0,115.21-.34l-2.17-1.83c0-.23-1.14-.59-1.36-.63l-.97-.12s-107.15,0-107.81.12Z"/>
        <path class="cls-29" d="m810.43,361.12c-.23.04-1.32.41-1.32.64l-2.06,1.85c0,.19.42.35.61.35,0,0,114.99,0,115.34-.35l-2.06-1.85c0-.23-1.09-.6-1.32-.64l-.97-.12s-107.53,0-108.21.12Z"/>
        <path class="cls-103" d="m810.23,361.16c-.23.04-1.29.4-1.29.64l-1.96,1.87c0,.2.41.36.61.36,0,0,115.11,0,115.47-.36l-1.96-1.87c0-.24-1.05-.6-1.29-.64l-.98-.13s-107.91,0-108.61.13Z"/>
        <path class="cls-32" d="m810.02,361.19c-.24.04-1.25.4-1.25.65l-1.86,1.9c0,.2.4.37.61.37,0,0,115.22,0,115.59-.37l-1.86-1.9c0-.24-1.01-.6-1.25-.65l-.98-.13s-108.29,0-109.01.13Z"/>
        <path class="cls-97" d="m809.82,361.23c-.25.04-1.22.4-1.22.65l-1.75,1.92c0,.21.39.38.6.38,0,0,115.34,0,115.72-.38l-1.75-1.92c0-.25-.97-.61-1.22-.65l-.98-.13s-108.67,0-109.4.13Z"/>
        <path class="cls-126" d="m809.62,361.27c-.25.05-1.18.4-1.18.66l-1.65,1.94c0,.21.39.39.6.39,0,0,115.46,0,115.85-.39l-1.65-1.94c0-.26-.93-.61-1.18-.66l-.99-.13s-109.05,0-109.8.13Z"/>
        <path class="cls-59" d="m809.42,361.3c-.26.05-1.14.4-1.14.66l-1.55,1.96c0,.22.38.4.6.4,0,0,115.58,0,115.98-.4l-1.55-1.96c0-.26-.88-.61-1.14-.66l-.99-.14s-109.43,0-110.2.14Z"/>
        <path class="cls-36" d="m809.22,361.34c-.27.05-1.11.39-1.11.66l-1.44,1.98c0,.22.37.41.59.41,0,0,115.7,0,116.1-.41l-1.44-1.98c0-.27-.84-.62-1.11-.66l-1-.14s-109.8,0-110.6.14Z"/>
        <path class="cls-51" d="m809.02,361.37c-.27.05-1.07.39-1.07.67l-1.34,2c0,.23.36.42.59.42,0,0,115.82,0,116.23-.42l-1.34-2c0-.28-.8-.62-1.07-.67l-1-.14s-110.18,0-111,.14Z"/>
        <path class="cls-42" d="m808.82,361.41c-.28.05-1.04.39-1.04.67l-1.24,2.03c0,.24.35.43.58.43,0,0,115.93,0,116.36-.43l-1.24-2.03c0-.28-.76-.62-1.04-.67l-1-.15s-110.56,0-111.39.15Z"/>
        <path class="cls-167" d="m808.62,361.44c-.28.05-1,.39-1,.68l-1.13,2.05c0,.24.34.44.58.44,0,0,116.05,0,116.49-.44l-1.13-2.05c0-.29-.72-.63-1-.68l-1.01-.15s-110.94,0-111.79.15Z"/>
        <path class="cls-63" d="m808.42,361.48c-.29.05-.97.39-.97.68l-1.03,2.07c0,.25.33.45.58.45,0,0,116.17,0,116.62-.45l-1.03-2.07c0-.3-.68-.63-.97-.68l-1.01-.15s-111.32,0-112.19.15Z"/>
        <path class="cls-166" d="m808.22,361.52c-.3.05-.93.39-.93.69l-.93,2.09c0,.25.32.45.57.45,0,0,116.29,0,116.74-.45l-.93-2.09c0-.3-.63-.63-.93-.69l-1.01-.16s-111.7,0-112.59.16Z"/>
        <path class="cls-142" d="m808.02,361.55c-.3.05-.89.38-.89.69l-.83,2.11c0,.26.31.46.57.46,0,0,116.41,0,116.87-.46l-.83-2.11c0-.31-.59-.64-.89-.69l-1.02-.16s-112.08,0-112.98.16Z"/>
        <path class="cls-40" d="m807.82,361.59c-.31.06-.86.38-.86.7l-.72,2.13c0,.26.3.47.57.47,0,0,116.53,0,117-.47l-.72-2.13c0-.31-.55-.64-.86-.7l-1.02-.16s-112.46,0-113.38.16Z"/>
        <path class="cls-24" d="m807.61,361.62c-.32.06-.82.38-.82.7l-.62,2.16c0,.27.3.48.56.48,0,0,116.64,0,117.13-.48l-.62-2.16c0-.32-.51-.64-.82-.7l-1.03-.17s-112.84,0-113.78.17Z"/>
        <path class="cls-20" d="m807.41,361.66c-.32.06-.79.38-.79.71l-.52,2.18c0,.27.29.49.56.49,0,0,116.76,0,117.26-.49l-.52-2.18c0-.33-.47-.65-.79-.71l-1.03-.17s-113.22,0-114.18.17Z"/>
        <path class="cls-23" d="m807.21,361.7c-.33.06-.75.38-.75.71l-.41,2.2c0,.28.28.5.55.5,0,0,116.88,0,117.38-.5l-.41-2.2c0-.33-.42-.65-.75-.71l-1.03-.17s-113.6,0-114.57.17Z"/>
        <path class="cls-75" d="m807.01,361.73c-.33.06-.72.37-.72.71l-.31,2.22c0,.28.27.51.55.51,0,0,117,0,117.51-.51l-.31-2.22c0-.34-.38-.65-.72-.71l-1.04-.18s-113.98,0-114.97.18Z"/>
        <path class="cls-119" d="m806.81,361.77c-.34.06-.68.37-.68.72l-.21,2.24c0,.29.26.52.55.52,0,0,117.12,0,117.64-.52l-.21-2.24c0-.35-.34-.66-.68-.72l-1.04-.18s-114.36,0-115.37.18Z"/>
        <path class="cls-106" d="m806.61,361.8c-.35.06-.64.37-.64.72l-.1,2.26c0,.29.25.53.54.53,0,0,117.24,0,117.77-.53l-.1-2.26c0-.35-.3-.66-.64-.72l-1.05-.18s-114.74,0-115.77.18Z"/>
        <path class="cls-143" d="m923.63,361.84l-1.05-.19h-115.11l-1.05.19c-.35.06-.61.37-.61.73v2.29c0,.3.24.54.54.54h117.35c.3,0,.54-.24.54-.54v-2.29c0-.36-.26-.66-.61-.73Z"/>
      </g>
      <g>
        <path class="cls-146" d="m1010.99,110.37h-304.16c-5.01,0-9.07,4.4-9.07,9.83v191.98c0,5.43,4.06,9.83,9.07,9.83h304.16c5.01,0,9.07-4.4,9.07-9.83V120.2c0-5.43-4.06-9.83-9.07-9.83Z"/>
        <path class="cls-168" d="m1009.6,112.06h-301.6c-4.97,0-8.99,4.33-8.99,9.68v188.9c0,5.34,4.03,9.68,8.99,9.68h301.6c4.97,0,8.99-4.33,8.99-9.68V121.74c0-5.34-4.03-9.68-8.99-9.68Z"/>
        <circle class="cls-115" cx="862.32" cy="116.94" r="2.92"/>
        <rect class="cls-128" x="705.97" y="119.86" width="305.4" height="194.07"/>
      </g>
    </g>
    <g id="_КОД" data-name="КОД">
      <g>
        <path class="cls-52" d="m725.54,140.27v-1.03h6.03v1.03h-6.03Zm0,3.2v-1.02h6.03v1.02h-6.03Zm.81,2.17l.72-8.56h1.06l-.72,8.56h-1.06Zm2.63,0l.72-8.56h1.06l-.72,8.56h-1.06Z"/>
        <path class="cls-52" d="m733.14,145.64v-1.05h2.56v1.05h-2.56Zm.36-5.34v-1.05h3.35v1.05h-3.35Zm2.67-2.06c-.25,0-.46-.09-.63-.26s-.26-.38-.26-.63.09-.46.26-.63c.17-.17.38-.26.63-.26s.46.09.63.26c.17.17.26.38.26.63s-.09.46-.26.63-.38.26-.63.26Zm-.6,7.41v-6.03h1.28v6.03h-1.28Zm1.16,0v-1.05h2.09v1.05h-2.09Z"/>
        <path class="cls-52" d="m740.43,145.64v-6.39h1.16l.12,1.35v5.04h-1.28Zm3.93,0v-4.16c0-.39-.1-.68-.3-.89-.2-.21-.48-.31-.84-.31-1.01,0-1.51.59-1.51,1.77l-.37-1.64h.49c.04-.43.19-.75.47-.96s.68-.32,1.22-.32c.68,0,1.2.21,1.57.62s.55.99.55,1.74v4.16h-1.28Z"/>
        <path class="cls-52" d="m750.89,145.76c-1.09,0-1.93-.29-2.52-.86-.59-.57-.89-1.4-.89-2.47s.28-1.86.84-2.44c.56-.58,1.36-.87,2.4-.87.62,0,1.16.12,1.6.35.44.23.76.56.95.98l-.98.74c-.18-.29-.41-.52-.69-.68-.28-.16-.59-.24-.92-.24-.6,0-1.07.18-1.41.55s-.5.88-.5,1.55c0,.73.2,1.28.59,1.67.39.38.95.58,1.68.58.3,0,.59-.01.89-.04.3-.03.59-.07.87-.11l.14,1.12c-.33.07-.67.12-1.02.15-.35.02-.69.04-1.03.04Z"/>
        <path class="cls-52" d="m754.48,137.64v-1.05h1.99v1.05h-1.99Zm3.98,8.12c-.74,0-1.27-.2-1.6-.6-.33-.4-.49-1.05-.49-1.93v-6.63h1.28v6.57c0,.34.03.61.1.83.06.21.19.37.38.47.19.1.46.15.83.15.33,0,.76-.08,1.28-.23l.14,1.12c-.33.09-.64.15-.94.19-.3.04-.62.06-.97.06Z"/>
        <path class="cls-52" d="m764.12,145.76c-.67,0-1.19-.2-1.56-.6-.37-.4-.55-.96-.55-1.69v-4.22h1.28v4.22c0,.37.1.65.31.85.21.2.5.3.88.3.47,0,.82-.15,1.05-.44.24-.3.36-.79.36-1.49l.33,1.72h-.42c-.1.43-.3.77-.59,1-.29.23-.66.35-1.09.35Zm1.77-1.93v-4.58h1.28v4.22l-1.28.36Zm.11,1.87l-.11-1.53v-1.12h1.28v1.44l.88.13v1.03l-2.05.06Z"/>
        <path class="cls-52" d="m771.49,145.76c-.84,0-1.47-.28-1.9-.83-.43-.55-.65-1.36-.65-2.43s.22-1.95.65-2.52c.43-.57,1.07-.86,1.9-.86.48,0,.87.11,1.17.34s.48.54.53.94h.49l-.37,1.82c0-.66-.13-1.16-.39-1.5-.26-.34-.64-.51-1.14-.51s-.9.19-1.17.58c-.26.39-.4.96-.4,1.71,0,.72.13,1.26.4,1.62.27.37.66.55,1.17.55s.88-.17,1.14-.51c.26-.34.39-.84.39-1.5l.43,1.82h-.55c-.04.4-.21.72-.51.94-.3.23-.7.34-1.19.34Zm1.95-.06l-.13-1.25v-7.85h1.28v9.05l-1.15.06Z"/>
        <path class="cls-52" d="m779.83,145.76c-1.09,0-1.93-.29-2.52-.86-.59-.57-.89-1.4-.89-2.47s.25-1.86.75-2.44c.5-.58,1.21-.87,2.13-.87.86,0,1.53.26,2,.78.47.52.71,1.28.71,2.28,0,.29-.01.57-.04.82h-4.49v-.98h3.37c0-.58-.14-1.02-.41-1.32s-.65-.46-1.13-.46c-.54,0-.96.19-1.26.55-.3.37-.45.89-.45,1.57,0,.74.21,1.3.62,1.69.41.39,1,.58,1.76.58.26,0,.53-.02.78-.05.26-.03.52-.07.78-.12l.16,1.12c-.38.07-.72.12-1.04.14-.31.02-.59.03-.83.03Z"/>
        <path class="cls-163" d="m796.43,144.35l-5.78-2.38v-1.22l5.78-2.38v1.33l-4.46,1.6v.11l4.46,1.6v1.33Z"/>
        <path class="cls-163" d="m798.28,145.64v-1.05h2.56v1.05h-2.56Zm.36-5.34v-1.05h3.35v1.05h-3.35Zm2.67-2.06c-.25,0-.46-.09-.63-.26s-.26-.38-.26-.63.09-.46.26-.63c.17-.17.38-.26.63-.26s.46.09.63.26c.17.17.26.38.26.63s-.09.46-.26.63-.38.26-.63.26Zm-.6,7.41v-6.03h1.28v6.03h-1.28Zm1.16,0v-1.05h2.09v1.05h-2.09Z"/>
        <path class="cls-163" d="m808.17,145.76c-.88,0-1.57-.29-2.06-.87-.49-.58-.74-1.4-.74-2.45s.25-1.87.74-2.45c.49-.58,1.18-.87,2.06-.87s1.58.29,2.07.87c.49.58.73,1.39.73,2.45s-.24,1.87-.73,2.45c-.49.58-1.18.87-2.07.87Zm0-1.15c.47,0,.83-.19,1.09-.57.26-.38.38-.91.38-1.6s-.13-1.23-.38-1.61c-.25-.38-.62-.56-1.09-.56s-.83.19-1.09.56c-.26.38-.38.91-.38,1.61s.13,1.23.38,1.6c.25.38.62.57,1.09.57Z"/>
        <path class="cls-163" d="m814.91,145.76c-.48,0-.9-.01-1.24-.04-.34-.03-.66-.07-.94-.14l.15-1.16c.42.06.79.11,1.12.14.32.03.63.05.92.05.65,0,1.12-.06,1.41-.19.29-.13.44-.33.44-.61,0-.19-.05-.34-.15-.43-.1-.09-.26-.17-.47-.22l-1.47-.37c-.63-.16-1.09-.36-1.39-.6-.29-.24-.44-.6-.44-1.08,0-.7.27-1.21.81-1.52.54-.31,1.4-.47,2.6-.47.31,0,.6,0,.87.03.27.02.54.05.82.09l-.13,1.11c-.33-.03-.61-.05-.86-.07-.25-.01-.49-.02-.73-.02-.72,0-1.23.06-1.56.18s-.48.32-.48.6c0,.19.07.32.2.4.13.08.33.16.61.23l1.18.29c.67.16,1.16.38,1.47.65s.47.66.47,1.18c0,.69-.25,1.19-.75,1.5-.5.31-1.31.47-2.42.47Z"/>
        <path class="cls-163" d="m819.45,140.29v-1.05h5.79v1.05h-5.79Zm1.6,2.33v-5.31h1.28v5.31h-1.28Zm2.75,3.14c-.97,0-1.67-.2-2.1-.6-.43-.4-.65-1.05-.65-1.93v-1.09h1.28v1.03c0,.51.12.87.37,1.1.25.23.65.34,1.22.34.2,0,.41-.01.64-.03.23-.02.48-.05.77-.09l.14,1.12c-.28.05-.56.08-.82.11s-.55.04-.85.04Z"/>
        <path class="cls-163" d="m826.74,145.64v-1.05h4.27v1.05h-4.27Zm.24-5.34v-1.05h2.13l.12,1.05h-2.26Zm1.18,5.34v-6.39h1.04l.24,1.83v4.56h-1.28Zm1.28-2.75l-.37-2h.49c.07-1.17.66-1.76,1.76-1.76.66,0,1.14.19,1.43.57.3.38.45.99.45,1.83h-1.27c0-.47-.07-.8-.21-1.01-.14-.21-.36-.31-.67-.31-.54,0-.95.23-1.22.7-.27.46-.4,1.12-.4,1.98Z"/>
        <path class="cls-163" d="m837.73,145.76c-1.09,0-1.93-.29-2.52-.86-.59-.57-.89-1.4-.89-2.47s.25-1.86.75-2.44c.5-.58,1.21-.87,2.13-.87.86,0,1.53.26,2,.78.47.52.71,1.28.71,2.28,0,.29-.01.57-.04.82h-4.49v-.98h3.37c0-.58-.14-1.02-.41-1.32s-.65-.46-1.13-.46c-.54,0-.96.19-1.26.55-.3.37-.45.89-.45,1.57,0,.74.21,1.3.62,1.69.41.39,1,.58,1.76.58.26,0,.53-.02.78-.05.26-.03.52-.07.78-.12l.16,1.12c-.38.07-.72.12-1.04.14-.31.02-.59.03-.83.03Z"/>
        <path class="cls-163" d="m843.41,145.76c-.67,0-1.18-.16-1.55-.48-.37-.32-.55-.78-.55-1.36,0-.68.25-1.19.76-1.56s1.22-.54,2.14-.54c.38,0,.72.02,1.02.07.3.05.57.12.8.21l-.26.87c-.27-.06-.53-.1-.79-.11-.26-.01-.52-.02-.79-.02-1.11,0-1.67.34-1.67,1.01,0,.28.1.5.29.65.19.15.46.23.81.23.4,0,.73-.07,1-.21s.47-.31.6-.52c.13-.21.2-.43.2-.66v-.7l.37,1.64h-.51l.2-.19c0,.37-.08.68-.26.93s-.41.43-.72.55-.68.18-1.1.18Zm2.26-.06l-.08-1.89-.17-.53v-1.65c0-.43-.15-.74-.45-.94-.3-.2-.74-.31-1.34-.32l-1.53-.04.12-1.13,1.29.02c1.06.02,1.84.24,2.35.68.51.44.77,1.08.77,1.93v2.67l1.08.13v1.03l-2.05.06Z"/>
        <path class="cls-163" d="m848.65,145.64v-6.39h1.13l.14,1.35v5.04h-1.28Zm2.4,0v-5.01c0-.36-.17-.54-.51-.54-.41,0-.62.29-.62.87l-.37-.92h.41c.05-.61.41-.92,1.1-.92.33,0,.6.11.79.34.19.23.29.58.29,1.04v5.13h-1.08Zm2.21,0v-4.89c0-.44-.17-.66-.49-.66-.42,0-.63.29-.63.87l-.43-.92h.49c.02-.25.12-.46.3-.65.18-.18.44-.27.77-.27.44,0,.76.12.96.36s.3.62.3,1.15v5.01h-1.28Z"/>
        <path class="cls-163" d="m856.09,144.35v-1.33l4.22-1.6v-.11l-4.22-1.6v-1.33l5.78,2.38v1.22l-5.78,2.38Z"/>
        <path class="cls-16" d="m727.93,160.58c-.67,0-1.19-.2-1.56-.6-.37-.4-.55-.96-.55-1.69v-4.22h1.28v4.22c0,.37.1.65.31.85.21.2.5.3.88.3.47,0,.82-.15,1.05-.44.24-.3.36-.79.36-1.49l.33,1.72h-.42c-.1.43-.3.77-.59,1-.29.23-.66.35-1.09.35Zm1.77-1.93v-4.58h1.28v4.22l-1.28.36Zm.11,1.87l-.11-1.53v-1.12h1.28v1.44l.88.13v1.03l-2.05.06Z"/>
        <path class="cls-16" d="m735.3,160.58c-.48,0-.9-.01-1.24-.04-.34-.03-.66-.07-.94-.14l.15-1.16c.42.06.79.11,1.12.14.32.03.63.05.92.05.65,0,1.12-.06,1.41-.19.29-.13.44-.33.44-.61,0-.19-.05-.34-.15-.43-.1-.09-.26-.17-.47-.22l-1.47-.37c-.63-.16-1.09-.36-1.39-.6-.29-.24-.44-.6-.44-1.08,0-.7.27-1.21.81-1.52.54-.31,1.4-.47,2.6-.47.31,0,.6,0,.87.03.27.02.54.05.82.09l-.13,1.11c-.33-.03-.61-.05-.86-.07-.25-.01-.49-.02-.73-.02-.72,0-1.23.06-1.56.18s-.48.32-.48.6c0,.19.07.32.2.4.13.08.33.16.61.23l1.18.29c.67.16,1.16.38,1.47.65s.47.66.47,1.18c0,.69-.25,1.19-.75,1.5-.5.31-1.31.47-2.42.47Z"/>
        <path class="cls-16" d="m740.38,160.46v-1.05h2.56v1.05h-2.56Zm.36-5.34v-1.05h3.35v1.05h-3.35Zm2.67-2.06c-.25,0-.46-.09-.63-.26s-.26-.38-.26-.63.09-.46.26-.63c.17-.17.38-.26.63-.26s.46.09.63.26c.17.17.26.38.26.63s-.09.46-.26.63-.38.26-.63.26Zm-.6,7.41v-6.03h1.28v6.03h-1.28Zm1.16,0v-1.05h2.09v1.05h-2.09Z"/>
        <path class="cls-16" d="m747.67,160.46v-6.39h1.16l.12,1.35v5.04h-1.28Zm3.93,0v-4.16c0-.39-.1-.68-.3-.89-.2-.21-.48-.31-.84-.31-1.01,0-1.51.59-1.51,1.77l-.37-1.64h.49c.04-.43.19-.75.47-.96s.68-.32,1.22-.32c.68,0,1.2.21,1.57.62s.55.99.55,1.74v4.16h-1.28Z"/>
        <path class="cls-16" d="m757.02,160.58c-.84,0-1.47-.28-1.9-.83-.43-.55-.65-1.36-.65-2.43s.22-1.95.65-2.52c.43-.57,1.07-.86,1.9-.86.5,0,.9.11,1.21.34.31.23.49.54.54.94h.5l-.43,1.82c0-.66-.13-1.16-.39-1.5-.26-.34-.64-.51-1.14-.51s-.9.19-1.17.58c-.26.39-.4.96-.4,1.71,0,.72.13,1.26.4,1.62.27.37.66.55,1.17.55s.88-.17,1.14-.51c.26-.34.39-.84.39-1.5l.43,1.82h-.55c-.04.4-.21.72-.51.94-.3.23-.7.34-1.19.34Zm-2.03,2.76l-.06-1.17,2.05-.06c.65-.02,1.12-.2,1.41-.54.29-.34.44-.83.45-1.49v-4.67l.12-1.35h1.16v5.83c0,1.14-.26,1.98-.78,2.52s-1.35.83-2.48.87l-1.87.06Z"/>
        <path class="cls-16" d="m769.38,160.46v-6.39h1.16l.12,1.35v5.04h-1.28Zm3.93,0v-4.16c0-.39-.1-.68-.3-.89-.2-.21-.48-.31-.84-.31-1.01,0-1.51.59-1.51,1.77l-.37-1.64h.49c.04-.43.19-.75.47-.96s.68-.32,1.22-.32c.68,0,1.2.21,1.57.62s.55.99.55,1.74v4.16h-1.28Z"/>
        <path class="cls-16" d="m778.28,160.58c-.67,0-1.18-.16-1.55-.48-.37-.32-.55-.78-.55-1.36,0-.68.25-1.19.76-1.56s1.22-.54,2.14-.54c.38,0,.72.02,1.02.07.3.05.57.12.8.21l-.26.87c-.27-.06-.53-.1-.79-.11-.26-.01-.52-.02-.79-.02-1.11,0-1.67.34-1.67,1.01,0,.28.1.5.29.65.19.15.46.23.81.23.4,0,.73-.07,1-.21s.47-.31.6-.52c.13-.21.2-.43.2-.66v-.7l.37,1.64h-.51l.2-.19c0,.37-.08.68-.26.93s-.41.43-.72.55-.68.18-1.1.18Zm2.26-.06l-.08-1.89-.17-.53v-1.65c0-.43-.15-.74-.45-.94-.3-.2-.74-.31-1.34-.32l-1.53-.04.12-1.13,1.29.02c1.06.02,1.84.24,2.35.68.51.44.77,1.08.77,1.93v2.67l1.08.13v1.03l-2.05.06Z"/>
        <path class="cls-16" d="m783.51,160.46v-6.39h1.13l.14,1.35v5.04h-1.28Zm2.4,0v-5.01c0-.36-.17-.54-.51-.54-.41,0-.62.29-.62.87l-.37-.92h.41c.05-.61.41-.92,1.1-.92.33,0,.6.11.79.34.19.23.29.58.29,1.04v5.13h-1.08Zm2.21,0v-4.89c0-.44-.17-.66-.49-.66-.42,0-.63.29-.63.87l-.43-.92h.49c.02-.25.12-.46.3-.65.18-.18.44-.27.77-.27.44,0,.76.12.96.36s.3.62.3,1.15v5.01h-1.28Z"/>
        <path class="cls-16" d="m794.31,160.58c-1.09,0-1.93-.29-2.52-.86-.59-.57-.89-1.4-.89-2.47s.25-1.86.75-2.44c.5-.58,1.21-.87,2.13-.87.86,0,1.53.26,2,.78.47.52.71,1.28.71,2.28,0,.29-.01.57-.04.82h-4.49v-.98h3.37c0-.58-.14-1.02-.41-1.32s-.65-.46-1.13-.46c-.54,0-.96.19-1.26.55-.3.37-.45.89-.45,1.57,0,.74.21,1.3.62,1.69.41.39,1,.58,1.76.58.26,0,.53-.02.78-.05.26-.03.52-.07.78-.12l.16,1.12c-.38.07-.72.12-1.04.14-.31.02-.59.03-.83.03Z"/>
        <path class="cls-16" d="m800.44,160.58c-.48,0-.9-.01-1.24-.04-.34-.03-.66-.07-.94-.14l.15-1.16c.42.06.79.11,1.12.14.32.03.63.05.92.05.65,0,1.12-.06,1.41-.19.29-.13.44-.33.44-.61,0-.19-.05-.34-.15-.43-.1-.09-.26-.17-.47-.22l-1.47-.37c-.63-.16-1.09-.36-1.39-.6-.29-.24-.44-.6-.44-1.08,0-.7.27-1.21.81-1.52.54-.31,1.4-.47,2.6-.47.31,0,.6,0,.87.03.27.02.54.05.82.09l-.13,1.11c-.33-.03-.61-.05-.86-.07-.25-.01-.49-.02-.73-.02-.72,0-1.23.06-1.56.18s-.48.32-.48.6c0,.19.07.32.2.4.13.08.33.16.61.23l1.18.29c.67.16,1.16.38,1.47.65s.47.66.47,1.18c0,.69-.25,1.19-.75,1.5-.5.31-1.31.47-2.42.47Z"/>
        <path class="cls-16" d="m805.56,163.23v-9.17h1.16l.12,1.35v7.82h-1.28Zm3.09-2.65c-.49,0-.89-.11-1.19-.34s-.47-.54-.51-.94h-.55l.43-1.82c0,.66.13,1.16.39,1.5.26.34.64.51,1.14.51s.91-.18,1.17-.55c.26-.37.4-.91.4-1.62,0-.76-.13-1.33-.4-1.71-.27-.39-.66-.58-1.17-.58s-.88.17-1.14.51c-.26.34-.39.84-.39,1.5l-.43-1.82h.5c.06-.4.24-.72.54-.94s.71-.34,1.21-.34c.84,0,1.48.29,1.91.86.43.57.65,1.41.65,2.52s-.21,1.88-.65,2.43c-.43.55-1.07.83-1.91.83Z"/>
        <path class="cls-16" d="m814.46,160.58c-.67,0-1.18-.16-1.55-.48-.37-.32-.55-.78-.55-1.36,0-.68.25-1.19.76-1.56s1.22-.54,2.14-.54c.38,0,.72.02,1.02.07.3.05.57.12.8.21l-.26.87c-.27-.06-.53-.1-.79-.11-.26-.01-.52-.02-.79-.02-1.11,0-1.67.34-1.67,1.01,0,.28.1.5.29.65.19.15.46.23.81.23.4,0,.73-.07,1-.21s.47-.31.6-.52c.13-.21.2-.43.2-.66v-.7l.37,1.64h-.51l.2-.19c0,.37-.08.68-.26.93s-.41.43-.72.55-.68.18-1.1.18Zm2.26-.06l-.08-1.89-.17-.53v-1.65c0-.43-.15-.74-.45-.94-.3-.2-.74-.31-1.34-.32l-1.53-.04.12-1.13,1.29.02c1.06.02,1.84.24,2.35.68.51.44.77,1.08.77,1.93v2.67l1.08.13v1.03l-2.05.06Z"/>
        <path class="cls-16" d="m823.26,160.58c-1.09,0-1.93-.29-2.52-.86-.59-.57-.89-1.4-.89-2.47s.28-1.86.84-2.44c.56-.58,1.36-.87,2.4-.87.62,0,1.16.12,1.6.35.44.23.76.56.95.98l-.98.74c-.18-.29-.41-.52-.69-.68-.28-.16-.59-.24-.92-.24-.6,0-1.07.18-1.41.55s-.5.88-.5,1.55c0,.73.2,1.28.59,1.67.39.38.95.58,1.68.58.3,0,.59-.01.89-.04.3-.03.59-.07.87-.11l.14,1.12c-.33.07-.67.12-1.02.15-.35.02-.69.04-1.03.04Z"/>
        <path class="cls-16" d="m830.5,160.58c-1.09,0-1.93-.29-2.52-.86-.59-.57-.89-1.4-.89-2.47s.25-1.86.75-2.44c.5-.58,1.21-.87,2.13-.87.86,0,1.53.26,2,.78.47.52.71,1.28.71,2.28,0,.29-.01.57-.04.82h-4.49v-.98h3.37c0-.58-.14-1.02-.41-1.32s-.65-.46-1.13-.46c-.54,0-.96.19-1.26.55-.3.37-.45.89-.45,1.57,0,.74.21,1.3.62,1.69.41.39,1,.58,1.76.58.26,0,.53-.02.78-.05.26-.03.52-.07.78-.12l.16,1.12c-.38.07-.72.12-1.04.14-.31.02-.59.03-.83.03Z"/>
        <path class="cls-9" d="m843.86,160.58c-.48,0-.9-.01-1.24-.04-.34-.03-.66-.07-.94-.14l.15-1.16c.42.06.79.11,1.12.14.32.03.63.05.92.05.65,0,1.12-.06,1.41-.19.29-.13.44-.33.44-.61,0-.19-.05-.34-.15-.43-.1-.09-.26-.17-.47-.22l-1.47-.37c-.63-.16-1.09-.36-1.39-.6-.29-.24-.44-.6-.44-1.08,0-.7.27-1.21.81-1.52.54-.31,1.4-.47,2.6-.47.31,0,.6,0,.87.03.27.02.54.05.82.09l-.13,1.11c-.33-.03-.61-.05-.86-.07-.25-.01-.49-.02-.73-.02-.72,0-1.23.06-1.56.18s-.48.32-.48.6c0,.19.07.32.2.4.13.08.33.16.61.23l1.18.29c.67.16,1.16.38,1.47.65s.47.66.47,1.18c0,.69-.25,1.19-.75,1.5-.5.31-1.31.47-2.42.47Z"/>
        <path class="cls-9" d="m848.4,155.12v-1.05h5.79v1.05h-5.79Zm1.6,2.33v-5.31h1.28v5.31h-1.28Zm2.75,3.14c-.97,0-1.67-.2-2.1-.6-.43-.4-.65-1.05-.65-1.93v-1.09h1.28v1.03c0,.51.12.87.37,1.1.25.23.65.34,1.22.34.2,0,.41-.01.64-.03.23-.02.48-.05.77-.09l.14,1.12c-.28.05-.56.08-.82.11s-.55.04-.85.04Z"/>
        <path class="cls-9" d="m858.34,160.58c-.84,0-1.47-.28-1.9-.83-.43-.55-.65-1.36-.65-2.43s.22-1.95.65-2.52c.43-.57,1.07-.86,1.9-.86.48,0,.87.11,1.17.34s.48.54.53.94h.49l-.37,1.82c0-.66-.13-1.16-.39-1.5-.26-.34-.64-.51-1.14-.51s-.9.19-1.17.58c-.26.39-.4.96-.4,1.71,0,.72.13,1.26.4,1.62.27.37.66.55,1.17.55s.88-.17,1.14-.51c.26-.34.39-.84.39-1.5l.43,1.82h-.55c-.04.4-.21.72-.51.94-.3.23-.7.34-1.19.34Zm1.95-.06l-.13-1.25v-7.85h1.28v9.05l-1.15.06Z"/>
        <path class="cls-43" d="m864.93,163.09l.48-4.16h1.4l-.72,4.16h-1.16Zm1.13-7.36c-.25,0-.46-.09-.63-.26s-.26-.38-.26-.63.09-.46.26-.63.38-.26.63-.26.46.09.63.26.26.38.26.63-.09.46-.26.63-.38.26-.63.26Z"/>
        <path class="cls-16" d="m725.91,190.1v-1.05h2.56v1.05h-2.56Zm.36-5.34v-1.05h3.35v1.05h-3.35Zm2.67-2.06c-.25,0-.46-.09-.63-.26s-.26-.38-.26-.63.09-.46.26-.63c.17-.17.38-.26.63-.26s.46.09.63.26c.17.17.26.38.26.63s-.09.46-.26.63-.38.26-.63.26Zm-.6,7.41v-6.03h1.28v6.03h-1.28Zm1.16,0v-1.05h2.09v1.05h-2.09Z"/>
        <path class="cls-16" d="m733.19,190.1v-6.39h1.16l.12,1.35v5.04h-1.28Zm3.93,0v-4.16c0-.39-.1-.68-.3-.89-.2-.21-.48-.31-.84-.31-1.01,0-1.51.59-1.51,1.77l-.37-1.64h.49c.04-.43.19-.75.47-.96s.68-.32,1.22-.32c.68,0,1.2.21,1.57.62s.55.99.55,1.74v4.16h-1.28Z"/>
        <path class="cls-16" d="m739.84,184.76v-1.05h5.79v1.05h-5.79Zm1.6,2.33v-5.31h1.28v5.31h-1.28Zm2.75,3.14c-.97,0-1.67-.2-2.1-.6-.43-.4-.65-1.05-.65-1.93v-1.09h1.28v1.03c0,.51.12.87.37,1.1.25.23.65.34,1.22.34.2,0,.41-.01.64-.03.23-.02.48-.05.77-.09l.14,1.12c-.28.05-.56.08-.82.11s-.55.04-.85.04Z"/>
        <path class="cls-9" d="m754.57,190.1v-6.39h1.13l.14,1.35v5.04h-1.28Zm2.4,0v-5.01c0-.36-.17-.54-.51-.54-.41,0-.62.29-.62.87l-.37-.92h.41c.05-.61.41-.92,1.1-.92.33,0,.6.11.79.34.19.23.29.58.29,1.04v5.13h-1.08Zm2.21,0v-4.89c0-.44-.17-.66-.49-.66-.42,0-.63.29-.63.87l-.43-.92h.49c.02-.25.12-.46.3-.65.18-.18.44-.27.77-.27.44,0,.76.12.96.36s.3.62.3,1.15v5.01h-1.28Z"/>
        <path class="cls-9" d="m763.8,190.22c-.67,0-1.18-.16-1.55-.48-.37-.32-.55-.78-.55-1.36,0-.68.25-1.19.76-1.56s1.22-.54,2.14-.54c.38,0,.72.02,1.02.07.3.05.57.12.8.21l-.26.87c-.27-.06-.53-.1-.79-.11-.26-.01-.52-.02-.79-.02-1.11,0-1.67.34-1.67,1.01,0,.28.1.5.29.65.19.15.46.23.81.23.4,0,.73-.07,1-.21s.47-.31.6-.52c.13-.21.2-.43.2-.66v-.7l.37,1.64h-.51l.2-.19c0,.37-.08.68-.26.93s-.41.43-.72.55-.68.18-1.1.18Zm2.26-.06l-.08-1.89-.17-.53v-1.65c0-.43-.15-.74-.45-.94-.3-.2-.74-.31-1.34-.32l-1.53-.04.12-1.13,1.29.02c1.06.02,1.84.24,2.35.68.51.44.77,1.08.77,1.93v2.67l1.08.13v1.03l-2.05.06Z"/>
        <path class="cls-9" d="m769.33,190.1v-1.05h2.56v1.05h-2.56Zm.36-5.34v-1.05h3.35v1.05h-3.35Zm2.67-2.06c-.25,0-.46-.09-.63-.26s-.26-.38-.26-.63.09-.46.26-.63c.17-.17.38-.26.63-.26s.46.09.63.26c.17.17.26.38.26.63s-.09.46-.26.63-.38.26-.63.26Zm-.6,7.41v-6.03h1.28v6.03h-1.28Zm1.16,0v-1.05h2.09v1.05h-2.09Z"/>
        <path class="cls-9" d="m776.62,190.1v-6.39h1.16l.12,1.35v5.04h-1.28Zm3.93,0v-4.16c0-.39-.1-.68-.3-.89-.2-.21-.48-.31-.84-.31-1.01,0-1.51.59-1.51,1.77l-.37-1.64h.49c.04-.43.19-.75.47-.96s.68-.32,1.22-.32c.68,0,1.2.21,1.57.62s.55.99.55,1.74v4.16h-1.28Z"/>
        <path class="cls-43" d="m788.57,191.31c-1.31,0-2.32-.48-3.04-1.44s-1.08-2.32-1.08-4.08.36-3.07,1.08-4.03c.72-.95,1.74-1.43,3.04-1.43h.29v1.09h-.17c-.95,0-1.69.38-2.2,1.15-.52.76-.77,1.84-.77,3.22s.26,2.5.77,3.27,1.25,1.16,2.2,1.16h.17v1.09h-.29Z"/>
        <path class="cls-43" d="m791.29,191.31v-1.09h.17c.95,0,1.69-.39,2.21-1.16s.77-1.87.77-3.27-.26-2.46-.77-3.22c-.52-.76-1.25-1.15-2.21-1.15h-.17v-1.09h.29c1.31,0,2.33.48,3.05,1.43.72.95,1.08,2.29,1.08,4.03s-.36,3.12-1.08,4.08-1.74,1.44-3.05,1.44h-.29Z"/>
        <path class="cls-43" d="m729.86,206.22c-.66,0-1.16-.2-1.52-.59s-.54-.94-.54-1.64c0-.34.04-.67.13-1s.13-.67.13-1.03c0-.23-.1-.4-.29-.53-.19-.13-.41-.21-.67-.27-.26-.05-.48-.08-.67-.08v-.95c.14,0,.3-.02.49-.06.18-.04.36-.09.54-.17.17-.07.32-.17.43-.27.11-.11.17-.23.17-.37,0-.37-.04-.72-.13-1.04s-.13-.65-.13-.99c0-.68.18-1.2.54-1.57.36-.37.87-.55,1.52-.55.24,0,.43.01.59.03.16.02.3.05.43.09l-.14,1.02c-.14-.02-.28-.04-.41-.04-.13-.01-.25-.02-.36-.02-.29,0-.5.09-.66.27-.15.18-.23.44-.23.77,0,.35.05.68.14,1,.09.32.14.65.14,1,0,.4-.14.71-.42.93s-.67.33-1.16.34v.21c.5,0,.89.13,1.16.35.28.23.42.53.42.91s-.05.71-.14,1.03c-.09.32-.14.64-.14.98,0,.37.08.65.23.85.15.2.37.3.66.3.11,0,.23,0,.36-.02s.27-.03.41-.04l.14,1.03c-.13.04-.28.07-.43.09-.16.02-.35.03-.59.03Z"/>
        <path class="cls-132" d="m742.54,219.87c-.48,0-.9-.01-1.24-.04-.34-.03-.66-.07-.94-.14l.15-1.16c.42.06.79.11,1.12.14.32.03.63.05.92.05.65,0,1.12-.06,1.41-.19.29-.13.44-.33.44-.61,0-.19-.05-.34-.15-.43-.1-.09-.26-.17-.47-.22l-1.47-.37c-.63-.16-1.09-.36-1.39-.6-.29-.24-.44-.6-.44-1.08,0-.7.27-1.21.81-1.52.54-.31,1.4-.47,2.6-.47.31,0,.6,0,.87.03.27.02.54.05.82.09l-.13,1.11c-.33-.03-.61-.05-.86-.07-.25-.01-.49-.02-.73-.02-.72,0-1.23.06-1.56.18s-.48.32-.48.6c0,.19.07.32.2.4.13.08.33.16.61.23l1.18.29c.67.16,1.16.38,1.47.65s.47.66.47,1.18c0,.69-.25,1.19-.75,1.5-.5.31-1.31.47-2.42.47Z"/>
        <path class="cls-132" d="m747.08,214.4v-1.05h5.79v1.05h-5.79Zm1.6,2.33v-5.31h1.28v5.31h-1.28Zm2.75,3.14c-.97,0-1.67-.2-2.1-.6-.43-.4-.65-1.05-.65-1.93v-1.09h1.28v1.03c0,.51.12.87.37,1.1.25.23.65.34,1.22.34.2,0,.41-.01.64-.03.23-.02.48-.05.77-.09l.14,1.12c-.28.05-.56.08-.82.11s-.55.04-.85.04Z"/>
        <path class="cls-132" d="m757.02,219.87c-.84,0-1.47-.28-1.9-.83-.43-.55-.65-1.36-.65-2.43s.22-1.95.65-2.52c.43-.57,1.07-.86,1.9-.86.48,0,.87.11,1.17.34s.48.54.53.94h.49l-.37,1.82c0-.66-.13-1.16-.39-1.5-.26-.34-.64-.51-1.14-.51s-.9.19-1.17.58c-.26.39-.4.96-.4,1.71,0,.72.13,1.26.4,1.62.27.37.66.55,1.17.55s.88-.17,1.14-.51c.26-.34.39-.84.39-1.5l.43,1.82h-.55c-.04.4-.21.72-.51.94-.3.23-.7.34-1.19.34Zm1.95-.06l-.13-1.25v-7.85h1.28v9.05l-1.15.06Z"/>
        <path class="cls-52" d="m764.75,215.02c-.25,0-.46-.09-.63-.26s-.26-.38-.26-.63.09-.46.26-.63.38-.26.63-.26.46.09.63.26.26.38.26.63-.09.46-.26.63-.38.26-.63.26Zm0,4.85c-.25,0-.46-.09-.63-.26s-.26-.39-.26-.63.09-.46.26-.63.38-.26.63-.26.46.09.63.26.26.38.26.63-.09.46-.26.63-.38.26-.63.26Z"/>
        <path class="cls-52" d="m771.98,215.02c-.25,0-.46-.09-.63-.26s-.26-.38-.26-.63.09-.46.26-.63.38-.26.63-.26.46.09.63.26.26.38.26.63-.09.46-.26.63-.38.26-.63.26Zm0,4.85c-.25,0-.46-.09-.63-.26s-.26-.39-.26-.63.09-.46.26-.63.38-.26.63-.26.46.09.63.26.26.38.26.63-.09.46-.26.63-.38.26-.63.26Z"/>
        <path class="cls-81" d="m779.83,219.87c-1.09,0-1.93-.29-2.52-.86-.59-.57-.89-1.4-.89-2.47s.28-1.86.84-2.44c.56-.58,1.36-.87,2.4-.87.62,0,1.16.12,1.6.35.44.23.76.56.95.98l-.98.74c-.18-.29-.41-.52-.69-.68-.28-.16-.59-.24-.92-.24-.6,0-1.07.18-1.41.55s-.5.88-.5,1.55c0,.73.2,1.28.59,1.67.39.38.95.58,1.68.58.3,0,.59-.01.89-.04.3-.03.59-.07.87-.11l.14,1.12c-.33.07-.67.12-1.02.15-.35.02-.69.04-1.03.04Z"/>
        <path class="cls-81" d="m786.46,219.87c-.88,0-1.57-.29-2.06-.87-.49-.58-.74-1.4-.74-2.45s.25-1.87.74-2.45c.49-.58,1.18-.87,2.06-.87s1.58.29,2.07.87c.49.58.73,1.39.73,2.45s-.24,1.87-.73,2.45c-.49.58-1.18.87-2.07.87Zm0-1.15c.47,0,.83-.19,1.09-.57.26-.38.38-.91.38-1.6s-.13-1.23-.38-1.61c-.25-.38-.62-.56-1.09-.56s-.83.19-1.09.56c-.26.38-.38.91-.38,1.61s.13,1.23.38,1.6c.25.38.62.57,1.09.57Z"/>
        <path class="cls-81" d="m793.07,219.87c-.67,0-1.19-.2-1.56-.6-.37-.4-.55-.96-.55-1.69v-4.22h1.28v4.22c0,.37.1.65.31.85.21.2.5.3.88.3.47,0,.82-.15,1.05-.44.24-.3.36-.79.36-1.49l.33,1.72h-.42c-.1.43-.3.77-.59,1-.29.23-.66.35-1.09.35Zm1.77-1.93v-4.58h1.28v4.22l-1.28.36Zm.11,1.87l-.11-1.53v-1.12h1.28v1.44l.88.13v1.03l-2.05.06Z"/>
        <path class="cls-81" d="m797.74,214.4v-1.05h5.79v1.05h-5.79Zm1.6,2.33v-5.31h1.28v5.31h-1.28Zm2.75,3.14c-.97,0-1.67-.2-2.1-.6-.43-.4-.65-1.05-.65-1.93v-1.09h1.28v1.03c0,.51.12.87.37,1.1.25.23.65.34,1.22.34.2,0,.41-.01.64-.03.23-.02.48-.05.77-.09l.14,1.12c-.28.05-.56.08-.82.11s-.55.04-.85.04Z"/>
        <path class="cls-9" d="m818.14,218.46l-5.78-2.38v-1.22l5.78-2.38v1.33l-4.46,1.6v.11l4.46,1.6v1.33Z"/>
        <path class="cls-9" d="m825.38,218.46l-5.78-2.38v-1.22l5.78-2.38v1.33l-4.46,1.6v.11l4.46,1.6v1.33Z"/>
        <path class="cls-163" d="m835.33,215.04l-.12-3.86h1.4l-.12,3.86h-1.16Zm2.44,0l-.12-3.86h1.4l-.12,3.86h-1.16Z"/>
        <path class="cls-163" d="m841.82,219.75l-.96-8.56h1.27l.72,7.6h.12l.79-5.43h1.21l-.4,1.19h-.24l-.63,5.2h-1.86Zm3.2,0l-.63-5.2h-.24l-.39-1.19h1.21l.78,5.43h.12l.72-7.6h1.27l-.96,8.56h-1.86Z"/>
        <path class="cls-163" d="m852.21,219.87c-1.09,0-1.93-.29-2.52-.86-.59-.57-.89-1.4-.89-2.47s.25-1.86.75-2.44c.5-.58,1.21-.87,2.13-.87.86,0,1.53.26,2,.78.47.52.71,1.28.71,2.28,0,.29-.01.57-.04.82h-4.49v-.98h3.37c0-.58-.14-1.02-.41-1.32s-.65-.46-1.13-.46c-.54,0-.96.19-1.26.55-.3.37-.45.89-.45,1.57,0,.74.21,1.3.62,1.69.41.39,1,.58,1.76.58.26,0,.53-.02.78-.05.26-.03.52-.07.78-.12l.16,1.12c-.38.07-.72.12-1.04.14-.31.02-.59.03-.83.03Z"/>
        <path class="cls-163" d="m855.8,211.75v-1.05h1.99v1.05h-1.99Zm3.98,8.12c-.74,0-1.27-.2-1.6-.6-.33-.4-.49-1.05-.49-1.93v-6.63h1.28v6.57c0,.34.03.61.1.83.06.21.19.37.38.47.19.1.46.15.83.15.33,0,.76-.08,1.28-.23l.14,1.12c-.33.09-.64.15-.94.19-.3.04-.62.06-.97.06Z"/>
        <path class="cls-163" d="m866.68,219.87c-1.09,0-1.93-.29-2.52-.86-.59-.57-.89-1.4-.89-2.47s.28-1.86.84-2.44c.56-.58,1.36-.87,2.4-.87.62,0,1.16.12,1.6.35.44.23.76.56.95.98l-.98.74c-.18-.29-.41-.52-.69-.68-.28-.16-.59-.24-.92-.24-.6,0-1.07.18-1.41.55s-.5.88-.5,1.55c0,.73.2,1.28.59,1.67.39.38.95.58,1.68.58.3,0,.59-.01.89-.04.3-.03.59-.07.87-.11l.14,1.12c-.33.07-.67.12-1.02.15-.35.02-.69.04-1.03.04Z"/>
        <path class="cls-163" d="m873.3,219.87c-.88,0-1.57-.29-2.06-.87-.49-.58-.74-1.4-.74-2.45s.25-1.87.74-2.45c.49-.58,1.18-.87,2.06-.87s1.58.29,2.07.87c.49.58.73,1.39.73,2.45s-.24,1.87-.73,2.45c-.49.58-1.18.87-2.07.87Zm0-1.15c.47,0,.83-.19,1.09-.57.26-.38.38-.91.38-1.6s-.13-1.23-.38-1.61c-.25-.38-.62-.56-1.09-.56s-.83.19-1.09.56c-.26.38-.38.91-.38,1.61s.13,1.23.38,1.6c.25.38.62.57,1.09.57Z"/>
        <path class="cls-163" d="m877.6,219.75v-6.39h1.13l.14,1.35v5.04h-1.28Zm2.4,0v-5.01c0-.36-.17-.54-.51-.54-.41,0-.62.29-.62.87l-.37-.92h.41c.05-.61.41-.92,1.1-.92.33,0,.6.11.79.34.19.23.29.58.29,1.04v5.13h-1.08Zm2.21,0v-4.89c0-.44-.17-.66-.49-.66-.42,0-.63.29-.63.87l-.43-.92h.49c.02-.25.12-.46.3-.65.18-.18.44-.27.77-.27.44,0,.76.12.96.36s.3.62.3,1.15v5.01h-1.28Z"/>
        <path class="cls-163" d="m888.39,219.87c-1.09,0-1.93-.29-2.52-.86-.59-.57-.89-1.4-.89-2.47s.25-1.86.75-2.44c.5-.58,1.21-.87,2.13-.87.86,0,1.53.26,2,.78.47.52.71,1.28.71,2.28,0,.29-.01.57-.04.82h-4.49v-.98h3.37c0-.58-.14-1.02-.41-1.32s-.65-.46-1.13-.46c-.54,0-.96.19-1.26.55-.3.37-.45.89-.45,1.57,0,.74.21,1.3.62,1.69.41.39,1,.58,1.76.58.26,0,.53-.02.78-.05.26-.03.52-.07.78-.12l.16,1.12c-.38.07-.72.12-1.04.14-.31.02-.59.03-.83.03Z"/>
        <path class="cls-163" d="m899.06,214.4v-1.05h5.79v1.05h-5.79Zm1.6,2.33v-5.31h1.28v5.31h-1.28Zm2.75,3.14c-.97,0-1.67-.2-2.1-.6-.43-.4-.65-1.05-.65-1.93v-1.09h1.28v1.03c0,.51.12.87.37,1.1.25.23.65.34,1.22.34.2,0,.41-.01.64-.03.23-.02.48-.05.77-.09l.14,1.12c-.28.05-.56.08-.82.11s-.55.04-.85.04Z"/>
        <path class="cls-163" d="m909.49,219.87c-.88,0-1.57-.29-2.06-.87-.49-.58-.74-1.4-.74-2.45s.25-1.87.74-2.45c.49-.58,1.18-.87,2.06-.87s1.58.29,2.07.87c.49.58.73,1.39.73,2.45s-.24,1.87-.73,2.45c-.49.58-1.18.87-2.07.87Zm0-1.15c.47,0,.83-.19,1.09-.57.26-.38.38-.91.38-1.6s-.13-1.23-.38-1.61c-.25-.38-.62-.56-1.09-.56s-.83.19-1.09.56c-.26.38-.38.91-.38,1.61s.13,1.23.38,1.6c.25.38.62.57,1.09.57Z"/>
        <path class="cls-163" d="m921.02,219.75v-6.39h1.13l.14,1.35v5.04h-1.28Zm2.4,0v-5.01c0-.36-.17-.54-.51-.54-.41,0-.62.29-.62.87l-.37-.92h.41c.05-.61.41-.92,1.1-.92.33,0,.6.11.79.34.19.23.29.58.29,1.04v5.13h-1.08Zm2.21,0v-4.89c0-.44-.17-.66-.49-.66-.42,0-.63.29-.63.87l-.43-.92h.49c.02-.25.12-.46.3-.65.18-.18.44-.27.77-.27.44,0,.76.12.96.36s.3.62.3,1.15v5.01h-1.28Z"/>
        <path class="cls-163" d="m930.46,219.75l-2.54-6.39h1.33l2.09,5.43h.19v.96h-1.06Zm-2.42,2.9l-.06-1.15,1-.12c.42-.05.78-.17,1.08-.34.3-.18.56-.44.77-.79.21-.35.4-.8.56-1.37l1.59-5.52h1.33l-1.85,5.83c-.24.76-.51,1.38-.81,1.85-.3.47-.65.82-1.06,1.05-.41.23-.9.38-1.47.45l-1.09.12Z"/>
        <path class="cls-163" d="m946.29,219.87c-1.28,0-2.24-.37-2.88-1.1-.64-.74-.96-1.84-.96-3.31,0-1.4.33-2.48,1-3.24.66-.77,1.59-1.15,2.79-1.15.6,0,1.12.09,1.57.28s.78.45,1,.79l-.9.89c-.19-.27-.42-.48-.7-.63-.28-.15-.58-.22-.9-.22-.81,0-1.44.28-1.89.84-.45.56-.68,1.35-.68,2.38,0,1.12.23,1.96.68,2.52.45.56,1.12.84,2.01.84.38,0,.72-.04,1.01-.11.29-.07.53-.14.71-.19l.47,1.05c-.17.05-.47.13-.89.22-.42.09-.91.14-1.45.14Zm-.55-3.26v-1.15h2.86v1.15h-2.86Zm1.75,2.9v-4.04h1.15v4.04h-1.15Z"/>
        <path class="cls-163" d="m950.26,219.75v-1.05h2.56v1.05h-2.56Zm.36-5.34v-1.05h3.35v1.05h-3.35Zm2.67-2.06c-.25,0-.46-.09-.63-.26s-.26-.38-.26-.63.09-.46.26-.63c.17-.17.38-.26.63-.26s.46.09.63.26c.17.17.26.38.26.63s-.09.46-.26.63-.38.26-.63.26Zm-.6,7.41v-6.03h1.28v6.03h-1.28Zm1.16,0v-1.05h2.09v1.05h-2.09Z"/>
        <path class="cls-163" d="m956.95,214.4v-1.05h5.79v1.05h-5.79Zm1.6,2.33v-5.31h1.28v5.31h-1.28Zm2.75,3.14c-.97,0-1.67-.2-2.1-.6-.43-.4-.65-1.05-.65-1.93v-1.09h1.28v1.03c0,.51.12.87.37,1.1.25.23.65.34,1.22.34.2,0,.41-.01.64-.03.23-.02.48-.05.77-.09l.14,1.12c-.28.05-.56.08-.82.11s-.55.04-.85.04Z"/>
        <path class="cls-163" d="m964.61,219.75v-8.56h1.21v8.56h-1.21Zm.25-3.69v-1.15h5.07v1.15h-5.07Zm4.09,3.69v-8.56h1.21v8.56h-1.21Z"/>
        <path class="cls-163" d="m974,219.87c-.67,0-1.19-.2-1.56-.6-.37-.4-.55-.96-.55-1.69v-4.22h1.28v4.22c0,.37.1.65.31.85.21.2.5.3.88.3.47,0,.82-.15,1.05-.44.24-.3.36-.79.36-1.49l.33,1.72h-.42c-.1.43-.3.77-.59,1-.29.23-.66.35-1.09.35Zm1.77-1.93v-4.58h1.28v4.22l-1.28.36Zm.11,1.87l-.11-1.53v-1.12h1.28v1.44l.88.13v1.03l-2.05.06Z"/>
        <path class="cls-163" d="m979.23,219.75v-9.05h1.28v8.94l-1.28.11Zm1.71.12c-.29,0-.58-.01-.86-.03-.28-.02-.57-.05-.86-.09l.49-1.17c.21.1.45.16.71.18.26.02.51.03.77.03.77,0,1.36-.23,1.78-.69.42-.46.63-1.12.63-1.96,0-.58-.13-1.03-.38-1.34s-.62-.47-1.09-.47c-1.08,0-1.63.61-1.63,1.83l-.37-1.64h.49c.06-.85.58-1.28,1.57-1.28.85,0,1.51.25,1.98.75.47.5.7,1.22.7,2.14,0,1.19-.34,2.11-1.03,2.76s-1.65.98-2.9.98Z"/>
        <path class="cls-163" d="m989.1,219.87c-.25,0-.46-.09-.63-.26s-.26-.39-.26-.63.09-.46.26-.63.38-.26.63-.26.46.09.63.26.26.38.26.63-.09.46-.26.63-.38.26-.63.26Zm-.59-2.87l-.04-5.87h1.25l-.06,5.87h-1.16Z"/>
        <path class="cls-163" d="m994.55,215.04l-.12-3.86h1.4l-.12,3.86h-1.16Zm2.44,0l-.12-3.86h1.4l-.12,3.86h-1.16Z"/>
        <path class="cls-9" d="m1002.44,222.38l.48-4.16h1.4l-.72,4.16h-1.16Zm1.13-7.36c-.25,0-.46-.09-.63-.26s-.26-.38-.26-.63.09-.46.26-.63.38-.26.63-.26.46.09.63.26.26.38.26.63-.09.46-.26.63-.38.26-.63.26Z"/>
        <path class="cls-14" d="m739.9,234.57v-1.05h4.27v1.05h-4.27Zm.24-5.34v-1.05h2.13l.12,1.05h-2.26Zm1.18,5.34v-6.39h1.04l.24,1.83v4.56h-1.28Zm1.28-2.75l-.37-2h.49c.07-1.17.66-1.76,1.76-1.76.66,0,1.14.19,1.43.57.3.38.45.99.45,1.83h-1.27c0-.47-.07-.8-.21-1.01-.14-.21-.36-.31-.67-.31-.54,0-.95.23-1.22.7-.27.46-.4,1.12-.4,1.98Z"/>
        <path class="cls-14" d="m750.89,234.69c-1.09,0-1.93-.29-2.52-.86-.59-.57-.89-1.4-.89-2.47s.25-1.86.75-2.44c.5-.58,1.21-.87,2.13-.87.86,0,1.53.26,2,.78.47.52.71,1.28.71,2.28,0,.29-.01.57-.04.82h-4.49v-.98h3.37c0-.58-.14-1.02-.41-1.32s-.65-.46-1.13-.46c-.54,0-.96.19-1.26.55-.3.37-.45.89-.45,1.57,0,.74.21,1.3.62,1.69.41.39,1,.58,1.76.58.26,0,.53-.02.78-.05.26-.03.52-.07.78-.12l.16,1.12c-.38.07-.72.12-1.04.14-.31.02-.59.03-.83.03Z"/>
        <path class="cls-14" d="m754.31,229.23v-1.05h5.79v1.05h-5.79Zm1.6,2.33v-5.31h1.28v5.31h-1.28Zm2.75,3.14c-.97,0-1.67-.2-2.1-.6-.43-.4-.65-1.05-.65-1.93v-1.09h1.28v1.03c0,.51.12.87.37,1.1.25.23.65.34,1.22.34.2,0,.41-.01.64-.03.23-.02.48-.05.77-.09l.14,1.12c-.28.05-.56.08-.82.11s-.55.04-.85.04Z"/>
        <path class="cls-14" d="m764.12,234.69c-.67,0-1.19-.2-1.56-.6-.37-.4-.55-.96-.55-1.69v-4.22h1.28v4.22c0,.37.1.65.31.85.21.2.5.3.88.3.47,0,.82-.15,1.05-.44.24-.3.36-.79.36-1.49l.33,1.72h-.42c-.1.43-.3.77-.59,1-.29.23-.66.35-1.09.35Zm1.77-1.93v-4.58h1.28v4.22l-1.28.36Zm.11,1.87l-.11-1.53v-1.12h1.28v1.44l.88.13v1.03l-2.05.06Z"/>
        <path class="cls-14" d="m768.85,234.57v-1.05h4.27v1.05h-4.27Zm.24-5.34v-1.05h2.13l.12,1.05h-2.26Zm1.18,5.34v-6.39h1.04l.24,1.83v4.56h-1.28Zm1.28-2.75l-.37-2h.49c.07-1.17.66-1.76,1.76-1.76.66,0,1.14.19,1.43.57.3.38.45.99.45,1.83h-1.27c0-.47-.07-.8-.21-1.01-.14-.21-.36-.31-.67-.31-.54,0-.95.23-1.22.7-.27.46-.4,1.12-.4,1.98Z"/>
        <path class="cls-14" d="m776.62,234.57v-6.39h1.16l.12,1.35v5.04h-1.28Zm3.93,0v-4.16c0-.39-.1-.68-.3-.89-.2-.21-.48-.31-.84-.31-1.01,0-1.51.59-1.51,1.77l-.37-1.64h.49c.04-.43.19-.75.47-.96s.68-.32,1.22-.32c.68,0,1.2.21,1.57.62s.55.99.55,1.74v4.16h-1.28Z"/>
        <path class="cls-90" d="m793.69,234.69c-1.95,0-2.92-1.45-2.92-4.34s.97-4.46,2.92-4.46,2.92,1.49,2.92,4.46-.97,4.34-2.92,4.34Zm0-1.11c1.09,0,1.63-1.08,1.63-3.23s-.54-3.35-1.63-3.35-1.63,1.12-1.63,3.35.54,3.23,1.63,3.23Zm0-2.33c-.27,0-.49-.08-.65-.25-.17-.17-.25-.38-.25-.65s.08-.49.25-.66c.17-.17.39-.25.65-.25s.49.08.66.25c.16.16.25.38.25.66s-.08.49-.25.65c-.17.17-.38.25-.66.25Z"/>
        <path class="cls-52" d="m799.8,237.2l.48-4.16h1.4l-.72,4.16h-1.16Zm1.13-7.36c-.25,0-.46-.09-.63-.26s-.26-.38-.26-.63.09-.46.26-.63.38-.26.63-.26.46.09.63.26.26.38.26.63-.09.46-.26.63-.38.26-.63.26Z"/>
        <path class="cls-43" d="m727.27,250.68c-.23,0-.43-.01-.59-.03-.16-.02-.3-.05-.44-.09l.14-1.03c.14.02.28.03.41.04.13.01.25.02.37.02.29,0,.5-.1.65-.3.15-.2.23-.48.23-.85,0-.33-.05-.66-.14-.98-.09-.32-.14-.66-.14-1.03s.14-.69.42-.91c.28-.23.67-.34,1.16-.35v-.21c-.5,0-.89-.12-1.16-.34-.28-.22-.42-.53-.42-.93,0-.35.05-.68.14-1,.09-.32.14-.65.14-1,0-.33-.08-.58-.23-.77-.15-.18-.37-.27-.65-.27-.11,0-.23,0-.37.01-.13.01-.27.03-.41.05l-.14-1.03c.13-.04.28-.07.44-.09.16-.02.35-.03.59-.03.66,0,1.16.18,1.52.55.36.37.54.89.54,1.57,0,.34-.04.67-.13.99-.08.32-.13.67-.13,1.04,0,.14.06.26.17.37.11.11.26.2.43.27s.36.13.54.17.35.06.48.06v.95c-.19,0-.42.03-.67.08-.25.05-.48.14-.67.27-.19.13-.29.3-.29.53,0,.35.04.7.13,1.02.08.33.13.66.13,1,0,.7-.18,1.25-.54,1.64-.36.39-.87.59-1.52.59Z"/>
      </g>
    </g>
  </g>
</svg>