<?xml version="1.0" encoding="utf-8"?>
<!-- Generator: Adobe Illustrator 27.2.0, SVG Export Plug-In . SVG Version: 6.00 Build 0)  -->
<svg version="1.1" xmlns="http://www.w3.org/2000/svg" xmlns:xlink="http://www.w3.org/1999/xlink" x="0px" y="0px"
	 viewBox="0 0 1200 492.7" style="enable-background:new 0 0 1200 492.7;" xml:space="preserve">
<style type="text/css">
	.st0{fill:#EEEEEE;}
	.st1{fill:#858585;}
	.st2{font-family:'FuturaPT-Bold';}
	.st3{font-size:80px;}
	.st4{fill:#5271FF;}
	.st5{font-family:'FuturaPT-Heavy';}
	.st6{font-size:48px;}
	.st7{fill:none;}
	.st8{fill:url(#SVGID_1_);}
	.st9{fill:url(#SVGID_00000175294238336153647040000003053962212523812264_);}
	.st10{fill:url(#SVGID_00000060736276881167250650000001318461309441792907_);}
	.st11{fill:url(#SVGID_00000071552808901765401920000007292471218190862266_);}
	.st12{fill:#FFFFFF;}
	.st13{fill:url(#SVGID_00000126308282681085861640000016433588229592581511_);}
	.st14{fill:url(#SVGID_00000091016808138203030120000015824742755966348735_);}
	.st15{opacity:0.3;fill:url(#SVGID_00000162325782361852769240000001127800851087541663_);}
	.st16{opacity:0.5;fill:url(#SVGID_00000156573184706925293700000017427746548205048210_);}
	.st17{fill:url(#SVGID_00000152984784777550837170000008468493022551950218_);}
	.st18{fill:url(#SVGID_00000106111718994040881500000007047036742096487573_);}
	.st19{fill:url(#SVGID_00000011744054408171692480000003499647535448055483_);}
	.st20{fill:url(#SVGID_00000130627702577591666200000003242128726624174768_);}
	.st21{fill:url(#SVGID_00000165216180335447591430000001093866896422599047_);}
	.st22{fill:url(#SVGID_00000106834073876224995140000017394740045393568679_);}
	.st23{fill:url(#SVGID_00000132088859446556220450000014046844403650714534_);}
	.st24{fill:url(#SVGID_00000003107393955231434800000005760135280097080997_);}
	.st25{fill:#F5FF33;}
	.st26{fill:#73FFFF;}
	.st27{opacity:0.48;}
	.st28{fill:url(#SVGID_00000132773442329237005850000013443732592461595290_);}
	.st29{fill:url(#SVGID_00000024692781787251881560000014211530163324635026_);}
	.st30{fill:url(#SVGID_00000089572341286948627940000002248875807528348861_);}
	.st31{fill:url(#SVGID_00000043425923441617028810000016791896488580581029_);}
	.st32{fill:url(#SVGID_00000064312272462539880130000007174768572846305952_);}
	.st33{fill:url(#SVGID_00000103259551463782538170000004949359229096313759_);}
	.st34{fill:url(#SVGID_00000129183384086168295490000017004303990602634372_);}
	.st35{fill:url(#SVGID_00000098907266886695045830000015557039395115189926_);}
	.st36{opacity:0.3;}
	.st37{fill:url(#SVGID_00000025404837470260636090000009606088925765115530_);}
	.st38{fill:url(#SVGID_00000170979609552600076160000002060580761594327680_);}
	.st39{fill:url(#SVGID_00000089563226022708706680000003812996557495408031_);}
	.st40{fill:url(#SVGID_00000136412164218554365900000013934008376769112197_);}
	.st41{fill:url(#SVGID_00000088839535773435273640000009506000128166744708_);}
	.st42{fill:url(#SVGID_00000097491445575570860590000017471532660170385570_);}
	.st43{fill:url(#SVGID_00000182512924294459356380000009747074854696024755_);}
	.st44{fill:url(#SVGID_00000059290355075643494240000016939464115556855954_);}
	.st45{fill:url(#SVGID_00000022551868018497759750000008560342447689927321_);}
	.st46{fill:url(#SVGID_00000132779514607162292140000009968880041636346298_);}
	.st47{fill:url(#SVGID_00000136399797541120047610000000735623062962215606_);}
	.st48{fill:url(#SVGID_00000174588289230410428950000010599899673095394970_);}
	.st49{fill:url(#SVGID_00000026864174489990104260000000562236731654146985_);}
	.st50{fill:url(#SVGID_00000164497444406904483320000006517341223880527234_);}
	.st51{fill:url(#SVGID_00000123413739191893003770000007968625897653779593_);}
	.st52{fill:url(#SVGID_00000153707197704496288060000012426998468548673930_);}
	.st53{opacity:0.3;fill:#FFFFFF;}
</style>
<g id="Слой_1">
	<g>
		<g>
			<g>
				<rect x="73.4" y="73" class="st0" width="1053.2" height="343.2"/>
				<text transform="matrix(1 0 0 1 155.7864 256.9427)" class="st1 st2 st3">RYZHAKOV</text>
				<text transform="matrix(1 0 0 1 159.9462 320.3346)" class="st4 st5 st6">Software Developer</text>
				<text transform="matrix(1 0 0 1 158.0854 172.8631)" class="st4 st5 st6">Hi, I am</text>
			</g>
		</g>
	</g>
</g>
<g id="Слой_2">
</g>
<g id="Слой_3">
	<rect class="st7" width="1200" height="492.7"/>
</g>
<g id="pc">
	<g>
		<g>
			<g>
				<linearGradient id="SVGID_1_" gradientUnits="userSpaceOnUse" x1="988.6341" y1="431.4684" x2="1039.9618" y2="431.4684">
					<stop  offset="0" style="stop-color:#D3C5CB"/>
					<stop  offset="1" style="stop-color:#ADA0A6"/>
				</linearGradient>
				<path class="st8" d="M1037.9,430.8l-46.5,6c-1.3,0.2-2.5-0.8-2.7-2.1l0,0c-0.2-1.3,0.8-2.5,2.1-2.7l46.5-6
					c1.3-0.2,2.5,0.8,2.7,2.1l0,0C1040.1,429.5,1039.2,430.7,1037.9,430.8z"/>
				
					<linearGradient id="SVGID_00000066507747701058982360000009967642533798591876_" gradientUnits="userSpaceOnUse" x1="1039.2888" y1="422.2304" x2="1050.2635" y2="422.2304">
					<stop  offset="0" style="stop-color:#D3C5CB"/>
					<stop  offset="1" style="stop-color:#ADA0A6"/>
				</linearGradient>
				<path style="fill:url(#SVGID_00000066507747701058982360000009967642533798591876_);" d="M1048.3,424.6l-8.3,1.1l-0.8-5.8
					l8.3-1.1c1.2-0.2,2.3,0.7,2.5,1.9l0.2,1.4C1050.4,423.4,1049.5,424.5,1048.3,424.6z"/>
				
					<linearGradient id="SVGID_00000156583676272890268230000006905532042774683808_" gradientUnits="userSpaceOnUse" x1="859.174" y1="442.0751" x2="859.174" y2="448.3333">
					<stop  offset="0" style="stop-color:#5D535A"/>
					<stop  offset="1" style="stop-color:#464143"/>
				</linearGradient>
				<path style="fill:url(#SVGID_00000156583676272890268230000006905532042774683808_);" d="M861.8,447.2l-4.3,0.6
					c-0.5,0.1-0.9-0.3-1-0.8l0,0c-0.1-0.5,0.3-0.9,0.8-1l4.3-0.6L861.8,447.2z"/>
				
					<linearGradient id="SVGID_00000173864446064695508990000005677163865962689683_" gradientUnits="userSpaceOnUse" x1="873.5674" y1="437.8946" x2="867.3092" y2="452.6708">
					<stop  offset="0" style="stop-color:#D3C5CB"/>
					<stop  offset="1" style="stop-color:#ADA0A6"/>
				</linearGradient>
				<path style="fill:url(#SVGID_00000173864446064695508990000005677163865962689683_);" d="M859.2,446.6L859.2,446.6
					c0.1,0.9,0.8,1.6,1.7,1.7l18.6,1.4l-1.4-11.1l-17.6,6.1C859.6,444.8,859.1,445.7,859.2,446.6z"/>
				<path class="st12" d="M860.3,445.7L860.3,445.7c0,0.2,0.7,0.4,1.6,0.3l18-2.9l-0.4-3.1l-17.8,4.9
					C860.9,445.1,860.3,445.4,860.3,445.7z"/>
				
					<linearGradient id="SVGID_00000115483262829438126680000011867830119447116711_" gradientUnits="userSpaceOnUse" x1="875.9471" y1="433.4768" x2="1043.8923" y2="433.4768">
					<stop  offset="0" style="stop-color:#5D535A"/>
					<stop  offset="1" style="stop-color:#464143"/>
				</linearGradient>
				<path style="fill:url(#SVGID_00000115483262829438126680000011867830119447116711_);" d="M1041,428.4l-161.9,21.2
					c-3.1,0.4-4.5-10.7-1.4-11.1l161.9-21.2c1.8-0.2,3.5,1.1,3.8,2.9l0.6,4.5C1044.1,426.5,1042.8,428.2,1041,428.4z"/>
				<polygon class="st12" points="1004.9,426.6 877.6,443.3 877.3,440.7 1004.5,423.9 				"/>
				
					<linearGradient id="SVGID_00000062907334736105956790000010275918890361803663_" gradientUnits="userSpaceOnUse" x1="590.0317" y1="-14.0315" x2="591.5261" y2="-14.0315" gradientTransform="matrix(0.9916 -0.1288 0.1288 0.9916 421.3095 517.4329)">
					<stop  offset="0" style="stop-color:#D3C5CB"/>
					<stop  offset="1" style="stop-color:#ADA0A6"/>
				</linearGradient>
				<polygon style="fill:url(#SVGID_00000062907334736105956790000010275918890361803663_);" points="1006.8,432.9 1005.3,433.1 
					1003.9,421.9 1005.3,421.7 				"/>
				
					<rect x="1038.5" y="417.4" transform="matrix(0.9917 -0.1288 0.1288 0.9917 -45.8265 137.377)" class="st12" width="1.5" height="11.3"/>
				
					<linearGradient id="SVGID_00000106860267917532631140000005157065463121151904_" gradientUnits="userSpaceOnUse" x1="538.2095" y1="-39.2654" x2="548.8554" y2="0.3816" gradientTransform="matrix(0.9916 -0.1288 0.1288 0.9916 421.3095 517.4329)">
					<stop  offset="0" style="stop-color:#5D535A"/>
					<stop  offset="1" style="stop-color:#464143"/>
				</linearGradient>
				<path style="opacity:0.3;fill:url(#SVGID_00000106860267917532631140000005157065463121151904_);" d="M1039.5,417.3L962,427.6
					c-8.6,8.5-14.7,10-19,9.4c-3-0.4-6.9-2.1-12.8-1c-5.7,1.1-5.9,3.4-10.5,3.7c-6.9,0.5-9.4-4.4-14.5-2.7c-2.7,0.9-2.2,2.4-6,4.9
					c-1.4,0.9-7.2,4.7-14,3.3c-4-0.8-6.9-3.1-8.8-5.2c-1,3.1,0.4,10,2.8,9.7l161.9-21.2c1.8-0.2,3.1-1.9,2.9-3.8l-0.6-4.5
					C1043,418.3,1041.4,417.1,1039.5,417.3z"/>
			</g>
			<g>
				
					<linearGradient id="SVGID_00000103983661568621997400000016268639812093617064_" gradientUnits="userSpaceOnUse" x1="1018.9581" y1="41.3593" x2="829.8229" y2="501.6808">
					<stop  offset="0" style="stop-color:#E4D6CA"/>
					<stop  offset="1" style="stop-color:#D4BDAC"/>
				</linearGradient>
				<path style="opacity:0.5;fill:url(#SVGID_00000103983661568621997400000016268639812093617064_);" d="M1028.7,388.1l-200.2,11.2
					V116.9l200.2,6c6.4,0.2,11.5,5.7,11.5,12.4v240.2C1040.2,382,1035,387.7,1028.7,388.1z"/>
				<path class="st12" d="M1032.4,386.6l-200.2,11.2V115.4l200.2,6c6.4,0.2,11.5,5.7,11.5,12.4v240.2
					C1043.9,380.5,1038.8,386.2,1032.4,386.6z"/>
				
					<linearGradient id="SVGID_00000105386964837692809350000000984972469246075778_" gradientUnits="userSpaceOnUse" x1="1028.3136" y1="37.3516" x2="839.1783" y2="497.6731">
					<stop  offset="0" style="stop-color:#E4D6CA"/>
					<stop  offset="1" style="stop-color:#D4BDAC"/>
				</linearGradient>
				<path style="fill:url(#SVGID_00000105386964837692809350000000984972469246075778_);" d="M1038,384l-200.2,11.2V112.9l200.2,6
					c6.4,0.2,11.5,5.7,11.5,12.4v240.2C1049.5,378,1044.4,383.7,1038,384z"/>
				
					<linearGradient id="SVGID_00000181781546672194089790000008831971901195465620_" gradientUnits="userSpaceOnUse" x1="925.3478" y1="-39.3221" x2="977.7381" y2="109.6841">
					<stop  offset="0" style="stop-color:#E4D6CA"/>
					<stop  offset="1" style="stop-color:#D4BDAC"/>
				</linearGradient>
				<polygon style="fill:url(#SVGID_00000181781546672194089790000008831971901195465620_);" points="1031.5,238.2 972.5,238.7 
					972.5,116.9 1031.5,118.6 				"/>
			</g>
			<g>
				
					<linearGradient id="SVGID_00000163770628307035577810000009967423829760467860_" gradientUnits="userSpaceOnUse" x1="822.8028" y1="390.3483" x2="932.7778" y2="390.3483">
					<stop  offset="0" style="stop-color:#3B3138"/>
					<stop  offset="1" style="stop-color:#241F21"/>
				</linearGradient>
				<path style="fill:url(#SVGID_00000163770628307035577810000009967423829760467860_);" d="M911.3,405.4c-5.1-1.7-8.9-6-9.9-11.3
					l-7.4-36.6l-63.2,2.2l-7.8,38.1c-1.1,5.3,3.3,10.7,8.3,12.7l26.4,10.3c4.9,1.9,10.2,2.7,15.5,2.2l55.9-4.8
					c1.6-0.1,2.9-1.4,3.1-3.1c0.2-1.6,1.3-3.5-0.2-4L911.3,405.4z"/>
				
					<linearGradient id="SVGID_00000151509200685057165650000017005747340522952125_" gradientUnits="userSpaceOnUse" x1="904.3162" y1="431.3763" x2="871.9824" y2="393.3059">
					<stop  offset="0" style="stop-color:#5D535A"/>
					<stop  offset="1" style="stop-color:#464143"/>
				</linearGradient>
				<path style="fill:url(#SVGID_00000151509200685057165650000017005747340522952125_);" d="M911.9,403.1
					c-5.1-1.7-8.9-5.9-9.9-11.1l-7.4-36.1l-61.7,2.2l-7.8,37.6c-1.1,5.3,1.8,10.6,6.8,12.5l26.4,10.2c4.9,1.9,10.2,2.7,15.4,2.2
					l55.8-4.7c1.6-0.1,2.9-1.4,3.1-3s-0.8-3.2-2.3-3.7L911.9,403.1z"/>
				
					<linearGradient id="SVGID_00000028303855684344514690000012648444556515901064_" gradientUnits="userSpaceOnUse" x1="885.7955" y1="325.7085" x2="779.918" y2="-46.0046">
					<stop  offset="0" style="stop-color:#5D535A"/>
					<stop  offset="1" style="stop-color:#464143"/>
				</linearGradient>
				<path style="fill:url(#SVGID_00000028303855684344514690000012648444556515901064_);" d="M1012.9,332.1v-164
					c0-3.4-2.8-6.2-6.2-6.4L725,150.4c-4.3-0.2-7.8,2.8-7.8,6.6v181.2L1012.9,332.1z"/>
				<g>
					<path class="st12" d="M725.9,182.2v141.6c0,3.5,3.3,6.3,7.2,6.2l267.4-7.6c3.2-0.1,5.8-2.7,5.8-5.9V190.2L725.9,182.2z"/>
					
						<linearGradient id="SVGID_00000134931669507756120200000003392883913470284199_" gradientUnits="userSpaceOnUse" x1="779.905" y1="85.3291" x2="972.8619" y2="292.4956">
						<stop  offset="0" style="stop-color:#96888E"/>
						<stop  offset="1" style="stop-color:#706369"/>
					</linearGradient>
					<path style="fill:url(#SVGID_00000134931669507756120200000003392883913470284199_);" d="M1006.3,190.2v-14.5
						c0-3.1-2.6-5.7-5.7-5.8l-267.6-10c-3.9-0.1-7.1,2.6-7.1,6v16.2L1006.3,190.2z"/>
					<g>
						<path class="st12" d="M745.4,171.2c0,1.2-1.1,2.2-2.5,2.1c-1.4,0-2.5-1.1-2.5-2.3c0-1.2,1.1-2.2,2.5-2.1
							C744.3,168.9,745.4,170,745.4,171.2z"/>
						<path class="st12" d="M756.1,171.5c0,1.2-1.1,2.2-2.4,2.1c-1.4,0-2.5-1.1-2.5-2.3c0-1.2,1.1-2.2,2.5-2.1
							C755,169.3,756.1,170.3,756.1,171.5z"/>
						<path class="st12" d="M766.7,171.9c0,1.2-1.1,2.1-2.4,2.1c-1.3,0-2.4-1.1-2.4-2.3c0-1.2,1.1-2.1,2.4-2.1
							C765.6,169.7,766.7,170.7,766.7,171.9z"/>
					</g>
				</g>
				
					<linearGradient id="SVGID_00000040570497999941543550000011595206739955494816_" gradientUnits="userSpaceOnUse" x1="846.0974" y1="285.4304" x2="871.6122" y2="376.7734">
					<stop  offset="0" style="stop-color:#5D535A"/>
					<stop  offset="1" style="stop-color:#464143"/>
				</linearGradient>
				<path style="fill:url(#SVGID_00000040570497999941543550000011595206739955494816_);" d="M717.2,338.2v36.2
					c0,3.8,3.5,6.7,7.8,6.6l281.7-11.9c3.4-0.1,6.2-3,6.2-6.4V331L717.2,338.2z"/>
				<g>
					<g>
						
							<linearGradient id="SVGID_00000129894400229005361300000005134009690494429332_" gradientUnits="userSpaceOnUse" x1="1132.6418" y1="448.4451" x2="827.9949" y2="234.1203">
							<stop  offset="0" style="stop-color:#F6AF9A"/>
							<stop  offset="0.9964" style="stop-color:#F89F8A"/>
						</linearGradient>
						<polygon style="fill:url(#SVGID_00000129894400229005361300000005134009690494429332_);" points="901.7,261.5 746.4,262.4 
							746.4,197.5 901.7,200.3 						"/>
						<polygon class="st25" points="989.5,261.1 910.9,261.5 910.9,200.5 989.5,201.9 						"/>
						<polygon class="st26" points="989.5,305 746.4,310.5 746.4,270.9 989.5,268.8 						"/>
					</g>
				</g>
				<g class="st27">
					<path class="st12" d="M982.3,310.9c-23.1-7.8-42.3,8.1-58.9-4.4c-18.8-14.2-3.6-41.3-20.9-57.4c-24.1-22.2-72.3,12.3-93.2-8.7
						c-14.4-14.4,2.6-37.5-9.6-61.8c-6.2-12.3-17.8-20.8-31.9-26.5l-42.9-1.7c-4.3-0.2-7.8,2.8-7.8,6.6v181.2v36.2
						c0,3.8,3.5,6.7,7.8,6.6l281.7-11.9c3.4-0.1,6.2-3,6.2-6.4v-23.4C1002.9,321.7,992,314.2,982.3,310.9z"/>
				</g>
			</g>
			<g>
				<g>
					
						<linearGradient id="SVGID_00000003099128512071838190000006816790336893248690_" gradientUnits="userSpaceOnUse" x1="780.4557" y1="291.4615" x2="773.9084" y2="318.765">
						<stop  offset="0" style="stop-color:#96888E"/>
						<stop  offset="1" style="stop-color:#706369"/>
					</linearGradient>
					
						<ellipse style="fill:url(#SVGID_00000003099128512071838190000006816790336893248690_);" cx="776.3" cy="308.9" rx="48" ry="10.4"/>
					
						<linearGradient id="SVGID_00000009579827998605577850000012746252096526614195_" gradientUnits="userSpaceOnUse" x1="782.5336" y1="292.499" x2="776.0552" y2="319.5153">
						<stop  offset="0" style="stop-color:#96888E"/>
						<stop  offset="1" style="stop-color:#706369"/>
					</linearGradient>
					<path style="fill:url(#SVGID_00000009579827998605577850000012746252096526614195_);" d="M728.3,308.9c0,0-2.2,11.2-2.2,11.3
						c0,0.1,100,0,100,0l-1.9-11.3H728.3z"/>
				</g>
				
					<linearGradient id="SVGID_00000152985011982710171980000003416825679471749557_" gradientUnits="userSpaceOnUse" x1="754.0754" y1="227.1508" x2="810.291" y2="464.567">
					<stop  offset="0" style="stop-color:#5D535A"/>
					<stop  offset="1" style="stop-color:#464143"/>
				</linearGradient>
				
					<ellipse style="fill:url(#SVGID_00000152985011982710171980000003416825679471749557_);" cx="776.1" cy="320.3" rx="50" ry="10.8"/>
				
					<linearGradient id="SVGID_00000061437272084012524100000016999325299475656590_" gradientUnits="userSpaceOnUse" x1="753.2422" y1="396.1502" x2="785.5801" y2="458.2333">
					<stop  offset="0" style="stop-color:#96888E"/>
					<stop  offset="1" style="stop-color:#706369"/>
				</linearGradient>
				
					<ellipse style="fill:url(#SVGID_00000061437272084012524100000016999325299475656590_);" cx="776.1" cy="440.1" rx="33.4" ry="10.9"/>
				
					<linearGradient id="SVGID_00000168825582412666030390000017317464681743518614_" gradientUnits="userSpaceOnUse" x1="755.2156" y1="395.1223" x2="787.5535" y2="457.2055">
					<stop  offset="0" style="stop-color:#96888E"/>
					<stop  offset="1" style="stop-color:#706369"/>
				</linearGradient>
				
					<rect x="742.7" y="430.8" style="fill:url(#SVGID_00000168825582412666030390000017317464681743518614_);" width="66.8" height="8.9"/>
				<g>
					
						<linearGradient id="SVGID_00000060003887983155262410000016514839518311303308_" gradientUnits="userSpaceOnUse" x1="689.4775" y1="337.0284" x2="822.1547" y2="481.9526">
						<stop  offset="0" style="stop-color:#95AFC7"/>
						<stop  offset="1" style="stop-color:#7595B6"/>
					</linearGradient>
					
						<ellipse style="fill:url(#SVGID_00000060003887983155262410000016514839518311303308_);" cx="776.1" cy="431.7" rx="36" ry="11.8"/>
					
						<linearGradient id="SVGID_00000101095680238243361240000013281664782538908311_" gradientUnits="userSpaceOnUse" x1="744.9399" y1="286.253" x2="877.6174" y2="431.1775">
						<stop  offset="0" style="stop-color:#95AFC7"/>
						<stop  offset="1" style="stop-color:#7595B6"/>
					</linearGradient>
					
						<ellipse style="fill:url(#SVGID_00000101095680238243361240000013281664782538908311_);" cx="776.1" cy="320.3" rx="45.2" ry="9.2"/>
					
						<linearGradient id="SVGID_00000114751858009878774320000002579510243749950599_" gradientUnits="userSpaceOnUse" x1="719.7086" y1="309.3521" x2="852.3858" y2="454.2764">
						<stop  offset="0" style="stop-color:#95AFC7"/>
						<stop  offset="1" style="stop-color:#7595B6"/>
					</linearGradient>
					<polygon style="fill:url(#SVGID_00000114751858009878774320000002579510243749950599_);" points="730.9,320.3 740.1,431.7 
						812.2,431.7 821.4,320.3 					"/>
				</g>
				<g class="st36">
					
						<linearGradient id="SVGID_00000039849463571422066780000007393866573107248044_" gradientUnits="userSpaceOnUse" x1="855.8629" y1="300.8504" x2="731.1949" y2="423.2027">
						<stop  offset="0" style="stop-color:#A6B2C7"/>
						<stop  offset="1" style="stop-color:#7595B6"/>
					</linearGradient>
					<path style="fill:url(#SVGID_00000039849463571422066780000007393866573107248044_);" d="M821.3,320.3c0-5.1-20.2-9.2-45.2-9.2
						c-8.7,0-16.8,0.5-23.6,1.4c-1.1,3.6-1.6,7.3-1.5,11.3c1,22.6,25.6,30.2,34.1,51.6c5.2,13,5.4,33.7-14.2,68
						c1.7,0.1,3.4,0.1,5.2,0.1c19.9,0,36-5.3,36-11.8L821.3,320.3L821.3,320.3z"/>
				</g>
				<g>
					
						<linearGradient id="SVGID_00000165213686937181800730000000040422697636262020_" gradientUnits="userSpaceOnUse" x1="732.4828" y1="377.1208" x2="819.7662" y2="377.1208">
						<stop  offset="0" style="stop-color:#F3E9E1"/>
						<stop  offset="1" style="stop-color:#E1D1C5"/>
					</linearGradient>
					<path style="fill:url(#SVGID_00000165213686937181800730000000040422697636262020_);" d="M738.5,409.3c19,1.8,56.1,1.8,75.3,0
						c0.5,0,0.8-0.4,0.9-1l5.1-62.2c0-0.6-0.3-1.1-0.9-1.1c-18.3-1.9-67.6-1.9-85.5,0c-0.5,0.1-0.9,0.6-0.9,1.1l5.1,62.1
						C737.7,408.8,738,409.2,738.5,409.3z"/>
					<g>
						
							<linearGradient id="SVGID_00000065058313668986008100000012503720969310559872_" gradientUnits="userSpaceOnUse" x1="741.9031" y1="368.2426" x2="789.3864" y2="373.9733">
							<stop  offset="0" style="stop-color:#E4D6CA"/>
							<stop  offset="1" style="stop-color:#D4BDAC"/>
						</linearGradient>
						<path style="fill:url(#SVGID_00000065058313668986008100000012503720969310559872_);" d="M814.5,345.6
							c-1.3,20.8-2.7,41.7-4,62.5c-0.1,1.1,0.8,2,1.8,1.9c0,0,0,0,0.1,0c0.8-0.1,1.5-0.8,1.5-1.6c1.5-20.8,2.9-41.7,4.4-62.5
							c0.1-1-0.6-1.8-1.5-1.9c-0.1,0-0.3,0-0.4,0C815.3,343.8,814.5,344.6,814.5,345.6z"/>
						
							<linearGradient id="SVGID_00000135677361410449647410000017759952691222800034_" gradientUnits="userSpaceOnUse" x1="741.8202" y1="368.9271" x2="789.3035" y2="374.6578">
							<stop  offset="0" style="stop-color:#E4D6CA"/>
							<stop  offset="1" style="stop-color:#D4BDAC"/>
						</linearGradient>
						<path style="fill:url(#SVGID_00000135677361410449647410000017759952691222800034_);" d="M808.3,345.2
							c-1.1,21.1-2.3,42.2-3.4,63.4c-0.1,1.1,0.8,1.9,1.8,1.9c0,0,0,0,0,0c0.8-0.1,1.5-0.8,1.6-1.7c1.3-21.1,2.5-42.2,3.8-63.3
							c0.1-1-0.6-1.8-1.6-1.9c-0.1,0-0.3,0-0.4,0C809.1,343.4,808.3,344.2,808.3,345.2z"/>
						
							<linearGradient id="SVGID_00000067955701541721394840000015236369322724445073_" gradientUnits="userSpaceOnUse" x1="741.736" y1="369.6241" x2="789.2193" y2="375.3549">
							<stop  offset="0" style="stop-color:#E4D6CA"/>
							<stop  offset="1" style="stop-color:#D4BDAC"/>
						</linearGradient>
						<path style="fill:url(#SVGID_00000067955701541721394840000015236369322724445073_);" d="M802.1,344.9
							c-0.9,21.3-1.8,42.6-2.8,63.9c0,1,0.8,1.9,1.7,1.9c0,0,0,0,0,0c0.9,0,1.5-0.8,1.6-1.7l3.2-63.9c0-1-0.7-1.8-1.6-1.9
							c-0.1,0-0.3,0-0.4,0C802.9,343.2,802.1,343.9,802.1,344.9z"/>
						
							<linearGradient id="SVGID_00000117677284411221175330000008050308482342419117_" gradientUnits="userSpaceOnUse" x1="741.6516" y1="370.3237" x2="789.1349" y2="376.0545">
							<stop  offset="0" style="stop-color:#E4D6CA"/>
							<stop  offset="1" style="stop-color:#D4BDAC"/>
						</linearGradient>
						<path style="fill:url(#SVGID_00000117677284411221175330000008050308482342419117_);" d="M795.9,344.7
							c-0.7,21.5-1.4,42.9-2.1,64.4c0,1,0.7,1.9,1.7,1.8c0,0,0,0,0,0c0.9,0,1.6-0.8,1.6-1.7c0.8-21.5,1.7-42.9,2.5-64.4
							c0-1-0.7-1.8-1.6-1.9c-0.1,0-0.3,0-0.4,0C796.7,343,795.9,343.7,795.9,344.7z"/>
						
							<linearGradient id="SVGID_00000046303252210754382750000014552922472988970399_" gradientUnits="userSpaceOnUse" x1="741.5672" y1="371.0231" x2="789.0505" y2="376.7538">
							<stop  offset="0" style="stop-color:#E4D6CA"/>
							<stop  offset="1" style="stop-color:#D4BDAC"/>
						</linearGradient>
						<path style="fill:url(#SVGID_00000046303252210754382750000014552922472988970399_);" d="M789.7,344.6l-1.5,64.7
							c0,1,0.7,1.9,1.7,1.8c0,0,0,0,0,0c0.9,0,1.6-0.8,1.6-1.7c0.6-21.6,1.2-43.1,1.9-64.7c0-1-0.7-1.8-1.6-1.8c-0.1,0-0.3,0-0.4,0
							C790.5,342.8,789.7,343.6,789.7,344.6z"/>
						
							<linearGradient id="SVGID_00000153681673550364041380000015789202497949457302_" gradientUnits="userSpaceOnUse" x1="741.483" y1="371.7213" x2="788.9663" y2="377.452">
							<stop  offset="0" style="stop-color:#E4D6CA"/>
							<stop  offset="1" style="stop-color:#D4BDAC"/>
						</linearGradient>
						<path style="fill:url(#SVGID_00000153681673550364041380000015789202497949457302_);" d="M783.5,344.5
							c-0.3,21.6-0.5,43.2-0.8,64.9c0,1,0.7,1.8,1.7,1.8c0,0,0,0,0,0c0.9,0,1.6-0.8,1.6-1.8c0.4-21.6,0.8-43.2,1.2-64.9
							c0-1-0.7-1.8-1.6-1.8c-0.1,0-0.3,0-0.4,0C784.3,342.7,783.5,343.5,783.5,344.5z"/>
						
							<linearGradient id="SVGID_00000034805396176030409970000013023989228466755217_" gradientUnits="userSpaceOnUse" x1="741.3989" y1="372.418" x2="788.8822" y2="378.1487">
							<stop  offset="0" style="stop-color:#E4D6CA"/>
							<stop  offset="1" style="stop-color:#D4BDAC"/>
						</linearGradient>
						<path style="fill:url(#SVGID_00000034805396176030409970000013023989228466755217_);" d="M777.3,344.5
							c0,21.6-0.1,43.3-0.1,64.9c0,1,0.7,1.8,1.7,1.8c0,0,0,0,0,0c0.9,0,1.6-0.8,1.6-1.8c0.2-21.6,0.4-43.3,0.5-64.9
							c0-1-0.7-1.8-1.7-1.8c-0.1,0-0.3,0-0.4,0C778.1,342.7,777.3,343.5,777.3,344.5z"/>
						
							<linearGradient id="SVGID_00000131332831242498466200000012413975048481833374_" gradientUnits="userSpaceOnUse" x1="741.3149" y1="373.1129" x2="788.7982" y2="378.8437">
							<stop  offset="0" style="stop-color:#E4D6CA"/>
							<stop  offset="1" style="stop-color:#D4BDAC"/>
						</linearGradient>
						<path style="fill:url(#SVGID_00000131332831242498466200000012413975048481833374_);" d="M771.2,344.5
							c0.2,21.6,0.4,43.3,0.5,64.9c0,1,0.7,1.8,1.6,1.8c0,0,0,0,0,0c0.9,0,1.7-0.8,1.7-1.8c0-21.6-0.1-43.3-0.1-64.9
							c0-1-0.7-1.8-1.7-1.8c-0.1,0-0.3,0-0.4,0C771.9,342.7,771.2,343.5,771.2,344.5z"/>
						
							<linearGradient id="SVGID_00000059290736447920833210000005337794200414788284_" gradientUnits="userSpaceOnUse" x1="741.2312" y1="373.8065" x2="788.7145" y2="379.5373">
							<stop  offset="0" style="stop-color:#E4D6CA"/>
							<stop  offset="1" style="stop-color:#D4BDAC"/>
						</linearGradient>
						<path style="fill:url(#SVGID_00000059290736447920833210000005337794200414788284_);" d="M765,344.6
							c0.4,21.6,0.8,43.2,1.2,64.8c0,1,0.7,1.7,1.6,1.8c0,0,0,0,0,0c0.9,0,1.7-0.8,1.7-1.8c-0.3-21.6-0.5-43.2-0.8-64.8
							c0-1-0.8-1.8-1.7-1.8c-0.1,0-0.3,0-0.4,0C765.7,342.8,765,343.6,765,344.6z"/>
						
							<linearGradient id="SVGID_00000175324830532774011020000015302431664494285209_" gradientUnits="userSpaceOnUse" x1="741.1476" y1="374.4989" x2="788.631" y2="380.2297">
							<stop  offset="0" style="stop-color:#E4D6CA"/>
							<stop  offset="1" style="stop-color:#D4BDAC"/>
						</linearGradient>
						<path style="fill:url(#SVGID_00000175324830532774011020000015302431664494285209_);" d="M758.8,344.7
							c0.6,21.5,1.2,43.1,1.9,64.6c0,0.9,0.7,1.7,1.6,1.7c0,0,0,0,0,0c0.9,0,1.7-0.8,1.7-1.8c-0.5-21.6-1-43.1-1.5-64.7
							c0-1-0.8-1.8-1.7-1.7c-0.1,0-0.3,0-0.4,0C759.5,342.9,758.8,343.7,758.8,344.7z"/>
						
							<linearGradient id="SVGID_00000021817247925140359590000008801990421855893183_" gradientUnits="userSpaceOnUse" x1="741.0641" y1="375.191" x2="788.5475" y2="380.9217">
							<stop  offset="0" style="stop-color:#E4D6CA"/>
							<stop  offset="1" style="stop-color:#D4BDAC"/>
						</linearGradient>
						<path style="fill:url(#SVGID_00000021817247925140359590000008801990421855893183_);" d="M752.6,344.9
							c0.8,21.4,1.7,42.9,2.5,64.3c0,0.9,0.7,1.7,1.6,1.7c0,0,0,0,0,0c1,0,1.7-0.8,1.7-1.8c-0.7-21.5-1.4-42.9-2.1-64.4
							c0-1-0.8-1.7-1.7-1.7c-0.1,0-0.3,0-0.4,0C753.3,343,752.6,343.9,752.6,344.9z"/>
						
							<linearGradient id="SVGID_00000176759678825846438890000001168570267515318195_" gradientUnits="userSpaceOnUse" x1="740.9806" y1="375.8834" x2="788.4639" y2="381.6142">
							<stop  offset="0" style="stop-color:#E4D6CA"/>
							<stop  offset="1" style="stop-color:#D4BDAC"/>
						</linearGradient>
						<path style="fill:url(#SVGID_00000176759678825846438890000001168570267515318195_);" d="M746.4,345.1
							c1.1,21.3,2.1,42.6,3.2,63.9c0,0.9,0.7,1.7,1.6,1.7c0,0,0,0,0,0c1,0,1.8-0.8,1.7-1.9c-0.9-21.3-1.8-42.6-2.8-63.9
							c0-1-0.8-1.7-1.7-1.7c-0.1,0-0.3,0-0.4,0C747.1,343.3,746.4,344.1,746.4,345.1z"/>
						
							<linearGradient id="SVGID_00000029754025834690507530000007008505722825561502_" gradientUnits="userSpaceOnUse" x1="740.8966" y1="376.5793" x2="788.3799" y2="382.31">
							<stop  offset="0" style="stop-color:#E4D6CA"/>
							<stop  offset="1" style="stop-color:#D4BDAC"/>
						</linearGradient>
						<path style="fill:url(#SVGID_00000029754025834690507530000007008505722825561502_);" d="M740.2,345.4
							c1.3,21.1,2.5,42.2,3.8,63.3c0.1,0.9,0.7,1.6,1.6,1.7c0,0,0,0,0,0c1,0.1,1.8-0.8,1.8-1.9c-1.1-21.1-2.3-42.2-3.4-63.3
							c-0.1-1-0.8-1.7-1.7-1.7c-0.1,0-0.3,0-0.4,0C740.9,343.6,740.2,344.4,740.2,345.4z"/>
						
							<linearGradient id="SVGID_00000152967776922019769720000003046537368091871628_" gradientUnits="userSpaceOnUse" x1="740.8112" y1="377.287" x2="788.2945" y2="383.0177">
							<stop  offset="0" style="stop-color:#E4D6CA"/>
							<stop  offset="1" style="stop-color:#D4BDAC"/>
						</linearGradient>
						<path style="fill:url(#SVGID_00000152967776922019769720000003046537368091871628_);" d="M734.1,345.9
							c1.5,20.8,2.9,41.6,4.4,62.4c0.1,0.9,0.7,1.6,1.5,1.6c0,0,0,0,0.1,0c1,0.1,1.9-0.8,1.8-1.9c-1.3-20.8-2.7-41.6-4-62.5
							c-0.1-1-0.9-1.7-1.8-1.7c-0.2,0-0.3,0-0.4,0C734.7,344.1,734,344.9,734.1,345.9z"/>
					</g>
				</g>
				<path class="st53" d="M773.3,411.2C773.4,411.2,773.4,411.2,773.3,411.2c0.5,0,1-0.2,1.3-0.6c1,0,2,0,3,0
					c0.3,0.4,0.7,0.6,1.2,0.6c0,0,0,0,0,0c0.5,0,0.9-0.2,1.2-0.6c1,0,2,0,3,0c0.3,0.4,0.7,0.6,1.2,0.6c0,0,0,0,0,0
					c0.2,0,0.5-0.1,0.7-0.2c4.5-16,3.3-27.4,0-35.7c-5.5-13.8-17.7-21.8-25.9-31.9c-0.1,0.1-0.2,0.2-0.2,0.3c-1,0-1.9,0-2.9,0.1
					c-0.3-0.5-0.8-0.9-1.4-0.8c-0.1,0-0.3,0-0.4,0c-0.6,0-1.1,0.4-1.4,0.9c-1,0-2,0.1-2.9,0.1c-0.3-0.5-0.8-0.8-1.5-0.8
					c-0.1,0-0.3,0-0.4,0c-0.6,0-1.1,0.4-1.4,0.9c-1,0-2,0.1-2.9,0.1c-0.3-0.5-0.9-0.8-1.5-0.8c-0.1,0-0.3,0-0.4,0
					c-0.6,0-1.1,0.4-1.4,1c-1,0.1-2,0.1-2.9,0.2c-0.3-0.5-0.9-0.8-1.5-0.7c-0.2,0-0.3,0-0.4,0c-0.6,0.1-1.1,0.4-1.3,1
					c-0.3,0-0.6,0.1-0.9,0.1c-0.5,0.1-0.9,0.6-0.9,1.1l5.1,62.1c0,0.5,0.4,0.9,0.9,1c0.1,0,0.2,0,0.3,0c0.3,0.4,0.7,0.6,1.2,0.7
					c0,0,0,0,0.1,0c0.5,0,0.9-0.1,1.3-0.5c1,0.1,2.1,0.2,3.1,0.2c0.3,0.4,0.7,0.6,1.2,0.7c0,0,0,0,0,0c0.5,0,0.9-0.2,1.3-0.5
					c1,0.1,2,0.1,3.1,0.2c0.3,0.4,0.7,0.6,1.2,0.6c0,0,0,0,0,0c0.5,0,0.9-0.2,1.2-0.5c1,0,2,0.1,3.1,0.1c0.3,0.4,0.7,0.6,1.2,0.6
					c0,0,0,0,0,0c0.5,0,0.9-0.2,1.2-0.5c1,0,2,0.1,3,0.1c0.3,0.4,0.7,0.6,1.2,0.6c0,0,0,0,0,0c0.5,0,0.9-0.2,1.2-0.6c1,0,2,0,3,0.1
					c0.3,0.4,0.7,0.6,1.2,0.6c0,0,0,0,0,0c0.5,0,0.9-0.2,1.2-0.6c1,0,2,0,3,0C772.4,411,772.9,411.2,773.3,411.2z"/>
			</g>
		</g>
	</g>
</g>
</svg>
